<mxfile host="65bd71144e">
    <diagram id="Mh9ALNeCVeHL3GK7aMIk" name="Page-1">
        <mxGraphModel dx="2880" dy="7670" grid="0" gridSize="10" guides="1" tooltips="1" connect="1" arrows="1" fold="1" page="1" pageScale="1" pageWidth="850" pageHeight="1100" background="#ffffff" math="0" shadow="0">
            <root>
                <mxCell id="0"/>
                <mxCell id="1" parent="0"/>
                <mxCell id="298" value="LDM" style="text;html=1;strokeColor=#001DBC;fillColor=#0050ef;align=center;verticalAlign=middle;whiteSpace=wrap;rounded=0;fontStyle=1;fontSize=70;fontColor=#ffffff;" parent="1" vertex="1">
                    <mxGeometry x="1999" y="-5149" width="193" height="80" as="geometry"/>
                </mxCell>
                <mxCell id="440" value="User" style="shape=table;startSize=30;container=1;collapsible=1;childLayout=tableLayout;fixedRows=1;rowLines=0;fontStyle=1;align=center;resizeLast=1;strokeColor=#000000;" parent="1" vertex="1">
                    <mxGeometry x="1965" y="-3753.45" width="273" height="243" as="geometry">
                        <mxRectangle x="194" y="-3673" width="62" height="30" as="alternateBounds"/>
                    </mxGeometry>
                </mxCell>
                <mxCell id="441" value="" style="shape=tableRow;horizontal=0;startSize=0;swimlaneHead=0;swimlaneBody=0;fillColor=none;collapsible=0;dropTarget=0;points=[[0,0.5],[1,0.5]];portConstraint=eastwest;top=0;left=0;right=0;bottom=0;" parent="440" vertex="1">
                    <mxGeometry y="30" width="273" height="30" as="geometry"/>
                </mxCell>
                <mxCell id="442" value="PK" style="shape=partialRectangle;connectable=0;fillColor=none;top=0;left=0;bottom=0;right=0;fontStyle=1;overflow=hidden;fontColor=#3333FF;" parent="441" vertex="1">
                    <mxGeometry width="33.75006103515625" height="30" as="geometry">
                        <mxRectangle width="33.75006103515625" height="30" as="alternateBounds"/>
                    </mxGeometry>
                </mxCell>
                <mxCell id="443" value="user_name  &lt;TEXT&gt; &lt;NOT NULL&gt;" style="shape=partialRectangle;connectable=0;fillColor=none;top=0;left=0;bottom=0;right=0;align=left;spacingLeft=6;fontStyle=1;overflow=hidden;fontColor=#3333FF;" parent="441" vertex="1">
                    <mxGeometry x="33.75006103515625" width="239.24993896484375" height="30" as="geometry">
                        <mxRectangle width="239.24993896484375" height="30" as="alternateBounds"/>
                    </mxGeometry>
                </mxCell>
                <mxCell id="447" value="" style="shape=tableRow;horizontal=0;startSize=0;swimlaneHead=0;swimlaneBody=0;fillColor=none;collapsible=0;dropTarget=0;points=[[0,0.5],[1,0.5]];portConstraint=eastwest;top=0;left=0;right=0;bottom=0;fontColor=#000000;" parent="440" vertex="1">
                    <mxGeometry y="60" width="273" height="30" as="geometry"/>
                </mxCell>
                <mxCell id="448" value="" style="shape=partialRectangle;connectable=0;fillColor=none;top=0;left=0;bottom=0;right=0;editable=1;overflow=hidden;fontColor=#000000;" parent="447" vertex="1">
                    <mxGeometry width="33.75006103515625" height="30" as="geometry">
                        <mxRectangle width="33.75006103515625" height="30" as="alternateBounds"/>
                    </mxGeometry>
                </mxCell>
                <mxCell id="449" value="hashed_password &lt;TEXT&gt; &lt;NOT NULL&gt;" style="shape=partialRectangle;connectable=0;fillColor=none;top=0;left=0;bottom=0;right=0;align=left;spacingLeft=6;overflow=hidden;fontColor=#000000;fontStyle=0" parent="447" vertex="1">
                    <mxGeometry x="33.75006103515625" width="239.24993896484375" height="30" as="geometry">
                        <mxRectangle width="239.24993896484375" height="30" as="alternateBounds"/>
                    </mxGeometry>
                </mxCell>
                <mxCell id="450" value="" style="shape=tableRow;horizontal=0;startSize=0;swimlaneHead=0;swimlaneBody=0;fillColor=none;collapsible=0;dropTarget=0;points=[[0,0.5],[1,0.5]];portConstraint=eastwest;top=0;left=0;right=0;bottom=0;fontColor=#000000;" parent="440" vertex="1">
                    <mxGeometry y="90" width="273" height="30" as="geometry"/>
                </mxCell>
                <mxCell id="451" value="" style="shape=partialRectangle;connectable=0;fillColor=none;top=0;left=0;bottom=0;right=0;editable=1;overflow=hidden;" parent="450" vertex="1">
                    <mxGeometry width="33.75006103515625" height="30" as="geometry">
                        <mxRectangle width="33.75006103515625" height="30" as="alternateBounds"/>
                    </mxGeometry>
                </mxCell>
                <mxCell id="452" value="first_name &lt;TEXT&gt; &lt;NOT NULL&gt;" style="shape=partialRectangle;connectable=0;fillColor=none;top=0;left=0;bottom=0;right=0;align=left;spacingLeft=6;overflow=hidden;fontColor=#000000;" parent="450" vertex="1">
                    <mxGeometry x="33.75006103515625" width="239.24993896484375" height="30" as="geometry">
                        <mxRectangle width="239.24993896484375" height="30" as="alternateBounds"/>
                    </mxGeometry>
                </mxCell>
                <mxCell id="456" style="shape=tableRow;horizontal=0;startSize=0;swimlaneHead=0;swimlaneBody=0;fillColor=none;collapsible=0;dropTarget=0;points=[[0,0.5],[1,0.5]];portConstraint=eastwest;top=0;left=0;right=0;bottom=0;fontColor=#000000;" parent="440" vertex="1">
                    <mxGeometry y="120" width="273" height="30" as="geometry"/>
                </mxCell>
                <mxCell id="457" style="shape=partialRectangle;connectable=0;fillColor=none;top=0;left=0;bottom=0;right=0;editable=1;overflow=hidden;" parent="456" vertex="1">
                    <mxGeometry width="33.75006103515625" height="30" as="geometry">
                        <mxRectangle width="33.75006103515625" height="30" as="alternateBounds"/>
                    </mxGeometry>
                </mxCell>
                <mxCell id="458" value="last_name &lt;TEXT&gt; &lt;NOT NULL&gt;" style="shape=partialRectangle;connectable=0;fillColor=none;top=0;left=0;bottom=0;right=0;align=left;spacingLeft=6;overflow=hidden;fontColor=#000000;" parent="456" vertex="1">
                    <mxGeometry x="33.75006103515625" width="239.24993896484375" height="30" as="geometry">
                        <mxRectangle width="239.24993896484375" height="30" as="alternateBounds"/>
                    </mxGeometry>
                </mxCell>
                <mxCell id="459" style="shape=tableRow;horizontal=0;startSize=0;swimlaneHead=0;swimlaneBody=0;fillColor=none;collapsible=0;dropTarget=0;points=[[0,0.5],[1,0.5]];portConstraint=eastwest;top=0;left=0;right=0;bottom=0;fontColor=#000000;" parent="440" vertex="1">
                    <mxGeometry y="150" width="273" height="30" as="geometry"/>
                </mxCell>
                <mxCell id="460" style="shape=partialRectangle;connectable=0;fillColor=none;top=0;left=0;bottom=0;right=0;editable=1;overflow=hidden;" parent="459" vertex="1">
                    <mxGeometry width="33.75006103515625" height="30" as="geometry">
                        <mxRectangle width="33.75006103515625" height="30" as="alternateBounds"/>
                    </mxGeometry>
                </mxCell>
                <mxCell id="461" value="email &lt;TEXT&gt;" style="shape=partialRectangle;connectable=0;fillColor=none;top=0;left=0;bottom=0;right=0;align=left;spacingLeft=6;overflow=hidden;fontColor=#000000;" parent="459" vertex="1">
                    <mxGeometry x="33.75006103515625" width="239.24993896484375" height="30" as="geometry">
                        <mxRectangle width="239.24993896484375" height="30" as="alternateBounds"/>
                    </mxGeometry>
                </mxCell>
                <mxCell id="462" style="shape=tableRow;horizontal=0;startSize=0;swimlaneHead=0;swimlaneBody=0;fillColor=none;collapsible=0;dropTarget=0;points=[[0,0.5],[1,0.5]];portConstraint=eastwest;top=0;left=0;right=0;bottom=0;fontColor=#000000;" parent="440" vertex="1">
                    <mxGeometry y="180" width="273" height="30" as="geometry"/>
                </mxCell>
                <mxCell id="463" style="shape=partialRectangle;connectable=0;fillColor=none;top=0;left=0;bottom=0;right=0;editable=1;overflow=hidden;" parent="462" vertex="1">
                    <mxGeometry width="33.75006103515625" height="30" as="geometry">
                        <mxRectangle width="33.75006103515625" height="30" as="alternateBounds"/>
                    </mxGeometry>
                </mxCell>
                <mxCell id="464" value="registration_date &lt;TEXT&gt; &lt;NOT NULL&gt;" style="shape=partialRectangle;connectable=0;fillColor=none;top=0;left=0;bottom=0;right=0;align=left;spacingLeft=6;overflow=hidden;fontColor=#000000;" parent="462" vertex="1">
                    <mxGeometry x="33.75006103515625" width="239.24993896484375" height="30" as="geometry">
                        <mxRectangle width="239.24993896484375" height="30" as="alternateBounds"/>
                    </mxGeometry>
                </mxCell>
                <mxCell id="468" style="shape=tableRow;horizontal=0;startSize=0;swimlaneHead=0;swimlaneBody=0;fillColor=none;collapsible=0;dropTarget=0;points=[[0,0.5],[1,0.5]];portConstraint=eastwest;top=0;left=0;right=0;bottom=0;fontColor=#000000;" parent="440" vertex="1">
                    <mxGeometry y="210" width="273" height="30" as="geometry"/>
                </mxCell>
                <mxCell id="469" style="shape=partialRectangle;connectable=0;fillColor=none;top=0;left=0;bottom=0;right=0;editable=1;overflow=hidden;" parent="468" vertex="1">
                    <mxGeometry width="33.75006103515625" height="30" as="geometry">
                        <mxRectangle width="33.75006103515625" height="30" as="alternateBounds"/>
                    </mxGeometry>
                </mxCell>
                <mxCell id="470" value="registration_time &lt;TEXT&gt; &lt;NOT NULL&gt;" style="shape=partialRectangle;connectable=0;fillColor=none;top=0;left=0;bottom=0;right=0;align=left;spacingLeft=6;overflow=hidden;fontColor=#000000;" parent="468" vertex="1">
                    <mxGeometry x="33.75006103515625" width="239.24993896484375" height="30" as="geometry">
                        <mxRectangle width="239.24993896484375" height="30" as="alternateBounds"/>
                    </mxGeometry>
                </mxCell>
                <mxCell id="471" value="Role" style="shape=table;startSize=30;container=1;collapsible=1;childLayout=tableLayout;fixedRows=1;rowLines=0;fontStyle=1;align=center;resizeLast=1;strokeColor=#000000;" parent="1" vertex="1">
                    <mxGeometry x="929.5" y="-3702" width="245" height="123" as="geometry">
                        <mxRectangle x="194" y="-3673" width="62" height="30" as="alternateBounds"/>
                    </mxGeometry>
                </mxCell>
                <mxCell id="472" value="" style="shape=tableRow;horizontal=0;startSize=0;swimlaneHead=0;swimlaneBody=0;fillColor=none;collapsible=0;dropTarget=0;points=[[0,0.5],[1,0.5]];portConstraint=eastwest;top=0;left=0;right=0;bottom=0;" parent="471" vertex="1">
                    <mxGeometry y="30" width="245" height="30" as="geometry"/>
                </mxCell>
                <mxCell id="473" value="PK" style="shape=partialRectangle;connectable=0;fillColor=none;top=0;left=0;bottom=0;right=0;fontStyle=1;overflow=hidden;fontColor=#3333FF;" parent="472" vertex="1">
                    <mxGeometry width="33.75006103515625" height="30" as="geometry">
                        <mxRectangle width="33.75006103515625" height="30" as="alternateBounds"/>
                    </mxGeometry>
                </mxCell>
                <mxCell id="474" value="role_name  &lt;TEXT&gt; &lt;NOT NULL&gt;" style="shape=partialRectangle;connectable=0;fillColor=none;top=0;left=0;bottom=0;right=0;align=left;spacingLeft=6;fontStyle=1;overflow=hidden;fontColor=#3333FF;" parent="472" vertex="1">
                    <mxGeometry x="33.75006103515625" width="211.24993896484375" height="30" as="geometry">
                        <mxRectangle width="211.24993896484375" height="30" as="alternateBounds"/>
                    </mxGeometry>
                </mxCell>
                <mxCell id="487" style="shape=tableRow;horizontal=0;startSize=0;swimlaneHead=0;swimlaneBody=0;fillColor=none;collapsible=0;dropTarget=0;points=[[0,0.5],[1,0.5]];portConstraint=eastwest;top=0;left=0;right=0;bottom=0;fontColor=#000000;" parent="471" vertex="1">
                    <mxGeometry y="60" width="245" height="30" as="geometry"/>
                </mxCell>
                <mxCell id="488" style="shape=partialRectangle;connectable=0;fillColor=none;top=0;left=0;bottom=0;right=0;editable=1;overflow=hidden;" parent="487" vertex="1">
                    <mxGeometry width="33.75006103515625" height="30" as="geometry">
                        <mxRectangle width="33.75006103515625" height="30" as="alternateBounds"/>
                    </mxGeometry>
                </mxCell>
                <mxCell id="489" value="creation_date &lt;TEXT&gt; &lt;NOT NULL&gt;" style="shape=partialRectangle;connectable=0;fillColor=none;top=0;left=0;bottom=0;right=0;align=left;spacingLeft=6;overflow=hidden;fontColor=#000000;" parent="487" vertex="1">
                    <mxGeometry x="33.75006103515625" width="211.24993896484375" height="30" as="geometry">
                        <mxRectangle width="211.24993896484375" height="30" as="alternateBounds"/>
                    </mxGeometry>
                </mxCell>
                <mxCell id="490" style="shape=tableRow;horizontal=0;startSize=0;swimlaneHead=0;swimlaneBody=0;fillColor=none;collapsible=0;dropTarget=0;points=[[0,0.5],[1,0.5]];portConstraint=eastwest;top=0;left=0;right=0;bottom=0;fontColor=#000000;" parent="471" vertex="1">
                    <mxGeometry y="90" width="245" height="30" as="geometry"/>
                </mxCell>
                <mxCell id="491" style="shape=partialRectangle;connectable=0;fillColor=none;top=0;left=0;bottom=0;right=0;editable=1;overflow=hidden;" parent="490" vertex="1">
                    <mxGeometry width="33.75006103515625" height="30" as="geometry">
                        <mxRectangle width="33.75006103515625" height="30" as="alternateBounds"/>
                    </mxGeometry>
                </mxCell>
                <mxCell id="492" value="creation_time &lt;TEXT&gt; &lt;NOT NULL&gt;" style="shape=partialRectangle;connectable=0;fillColor=none;top=0;left=0;bottom=0;right=0;align=left;spacingLeft=6;overflow=hidden;fontColor=#000000;" parent="490" vertex="1">
                    <mxGeometry x="33.75006103515625" width="211.24993896484375" height="30" as="geometry">
                        <mxRectangle width="211.24993896484375" height="30" as="alternateBounds"/>
                    </mxGeometry>
                </mxCell>
                <mxCell id="493" value="Permission" style="shape=table;startSize=30;container=1;collapsible=1;childLayout=tableLayout;fixedRows=1;rowLines=0;fontStyle=1;align=center;resizeLast=1;strokeColor=#000000;" parent="1" vertex="1">
                    <mxGeometry x="910.5" y="-4682" width="283" height="123" as="geometry">
                        <mxRectangle x="194" y="-3673" width="62" height="30" as="alternateBounds"/>
                    </mxGeometry>
                </mxCell>
                <mxCell id="494" value="" style="shape=tableRow;horizontal=0;startSize=0;swimlaneHead=0;swimlaneBody=0;fillColor=none;collapsible=0;dropTarget=0;points=[[0,0.5],[1,0.5]];portConstraint=eastwest;top=0;left=0;right=0;bottom=0;" parent="493" vertex="1">
                    <mxGeometry y="30" width="283" height="30" as="geometry"/>
                </mxCell>
                <mxCell id="495" value="PK" style="shape=partialRectangle;connectable=0;fillColor=none;top=0;left=0;bottom=0;right=0;fontStyle=1;overflow=hidden;fontColor=#3333FF;" parent="494" vertex="1">
                    <mxGeometry width="33.75006103515625" height="30" as="geometry">
                        <mxRectangle width="33.75006103515625" height="30" as="alternateBounds"/>
                    </mxGeometry>
                </mxCell>
                <mxCell id="496" value="permission_name  &lt;TEXT&gt; &lt;NOT NULL&gt;" style="shape=partialRectangle;connectable=0;fillColor=none;top=0;left=0;bottom=0;right=0;align=left;spacingLeft=6;fontStyle=1;overflow=hidden;fontColor=#3333FF;" parent="494" vertex="1">
                    <mxGeometry x="33.75006103515625" width="249.24993896484375" height="30" as="geometry">
                        <mxRectangle width="249.24993896484375" height="30" as="alternateBounds"/>
                    </mxGeometry>
                </mxCell>
                <mxCell id="497" style="shape=tableRow;horizontal=0;startSize=0;swimlaneHead=0;swimlaneBody=0;fillColor=none;collapsible=0;dropTarget=0;points=[[0,0.5],[1,0.5]];portConstraint=eastwest;top=0;left=0;right=0;bottom=0;fontColor=#000000;" parent="493" vertex="1">
                    <mxGeometry y="60" width="283" height="30" as="geometry"/>
                </mxCell>
                <mxCell id="498" style="shape=partialRectangle;connectable=0;fillColor=none;top=0;left=0;bottom=0;right=0;editable=1;overflow=hidden;" parent="497" vertex="1">
                    <mxGeometry width="33.75006103515625" height="30" as="geometry">
                        <mxRectangle width="33.75006103515625" height="30" as="alternateBounds"/>
                    </mxGeometry>
                </mxCell>
                <mxCell id="499" value="creation_date &lt;TEXT&gt; &lt;NOT NULL&gt;" style="shape=partialRectangle;connectable=0;fillColor=none;top=0;left=0;bottom=0;right=0;align=left;spacingLeft=6;overflow=hidden;fontColor=#000000;" parent="497" vertex="1">
                    <mxGeometry x="33.75006103515625" width="249.24993896484375" height="30" as="geometry">
                        <mxRectangle width="249.24993896484375" height="30" as="alternateBounds"/>
                    </mxGeometry>
                </mxCell>
                <mxCell id="500" style="shape=tableRow;horizontal=0;startSize=0;swimlaneHead=0;swimlaneBody=0;fillColor=none;collapsible=0;dropTarget=0;points=[[0,0.5],[1,0.5]];portConstraint=eastwest;top=0;left=0;right=0;bottom=0;fontColor=#000000;" parent="493" vertex="1">
                    <mxGeometry y="90" width="283" height="30" as="geometry"/>
                </mxCell>
                <mxCell id="501" style="shape=partialRectangle;connectable=0;fillColor=none;top=0;left=0;bottom=0;right=0;editable=1;overflow=hidden;" parent="500" vertex="1">
                    <mxGeometry width="33.75006103515625" height="30" as="geometry">
                        <mxRectangle width="33.75006103515625" height="30" as="alternateBounds"/>
                    </mxGeometry>
                </mxCell>
                <mxCell id="502" value="creation_time &lt;TEXT&gt; &lt;NOT NULL&gt;" style="shape=partialRectangle;connectable=0;fillColor=none;top=0;left=0;bottom=0;right=0;align=left;spacingLeft=6;overflow=hidden;fontColor=#000000;" parent="500" vertex="1">
                    <mxGeometry x="33.75006103515625" width="249.24993896484375" height="30" as="geometry">
                        <mxRectangle width="249.24993896484375" height="30" as="alternateBounds"/>
                    </mxGeometry>
                </mxCell>
                <mxCell id="503" value="User_Role" style="shape=table;startSize=30;container=1;collapsible=1;childLayout=tableLayout;fixedRows=1;rowLines=0;fontStyle=1;align=center;resizeLast=1;strokeColor=#000000;" parent="1" vertex="1">
                    <mxGeometry x="1423" y="-3702" width="307" height="152.1" as="geometry">
                        <mxRectangle x="194" y="-3673" width="62" height="30" as="alternateBounds"/>
                    </mxGeometry>
                </mxCell>
                <mxCell id="522" style="shape=tableRow;horizontal=0;startSize=0;swimlaneHead=0;swimlaneBody=0;fillColor=none;collapsible=0;dropTarget=0;points=[[0,0.5],[1,0.5]];portConstraint=eastwest;top=0;left=0;right=0;bottom=0;" parent="503" vertex="1">
                    <mxGeometry y="30" width="307" height="30" as="geometry"/>
                </mxCell>
                <mxCell id="523" value="PK,FK1" style="shape=partialRectangle;connectable=0;fillColor=none;top=0;left=0;bottom=0;right=0;fontStyle=1;overflow=hidden;fontColor=#FF00FF;" parent="522" vertex="1">
                    <mxGeometry width="53.1875" height="30" as="geometry">
                        <mxRectangle width="53.1875" height="30" as="alternateBounds"/>
                    </mxGeometry>
                </mxCell>
                <mxCell id="524" value="user_name  &lt;TEXT&gt; &lt;NOT NULL&gt;" style="shape=partialRectangle;connectable=0;fillColor=none;top=0;left=0;bottom=0;right=0;align=left;spacingLeft=6;fontStyle=1;overflow=hidden;fontColor=#FF00FF;" parent="522" vertex="1">
                    <mxGeometry x="53.1875" width="253.8125" height="30" as="geometry">
                        <mxRectangle width="253.8125" height="30" as="alternateBounds"/>
                    </mxGeometry>
                </mxCell>
                <mxCell id="504" value="" style="shape=tableRow;horizontal=0;startSize=0;swimlaneHead=0;swimlaneBody=0;fillColor=none;collapsible=0;dropTarget=0;points=[[0,0.5],[1,0.5]];portConstraint=eastwest;top=0;left=0;right=0;bottom=0;" parent="503" vertex="1">
                    <mxGeometry y="60" width="307" height="29" as="geometry"/>
                </mxCell>
                <mxCell id="505" value="PK,FK2" style="shape=partialRectangle;connectable=0;fillColor=none;top=0;left=0;bottom=0;right=0;fontStyle=1;overflow=hidden;fontColor=#FF00FF;" parent="504" vertex="1">
                    <mxGeometry width="53.1875" height="29" as="geometry">
                        <mxRectangle width="53.1875" height="29" as="alternateBounds"/>
                    </mxGeometry>
                </mxCell>
                <mxCell id="506" value="role_name  &lt;TEXT&gt; &lt;NOT NULL&gt;" style="shape=partialRectangle;connectable=0;fillColor=none;top=0;left=0;bottom=0;right=0;align=left;spacingLeft=6;fontStyle=1;overflow=hidden;fontColor=#FF00FF;" parent="504" vertex="1">
                    <mxGeometry x="53.1875" width="253.8125" height="29" as="geometry">
                        <mxRectangle width="253.8125" height="29" as="alternateBounds"/>
                    </mxGeometry>
                </mxCell>
                <mxCell id="507" style="shape=tableRow;horizontal=0;startSize=0;swimlaneHead=0;swimlaneBody=0;fillColor=none;collapsible=0;dropTarget=0;points=[[0,0.5],[1,0.5]];portConstraint=eastwest;top=0;left=0;right=0;bottom=0;fontColor=#000000;" parent="503" vertex="1">
                    <mxGeometry y="89" width="307" height="30" as="geometry"/>
                </mxCell>
                <mxCell id="508" style="shape=partialRectangle;connectable=0;fillColor=none;top=0;left=0;bottom=0;right=0;editable=1;overflow=hidden;" parent="507" vertex="1">
                    <mxGeometry width="53.1875" height="30" as="geometry">
                        <mxRectangle width="53.1875" height="30" as="alternateBounds"/>
                    </mxGeometry>
                </mxCell>
                <mxCell id="509" value="role_assignment_date &lt;TEXT&gt; &lt;NOT NULL&gt;" style="shape=partialRectangle;connectable=0;fillColor=none;top=0;left=0;bottom=0;right=0;align=left;spacingLeft=6;overflow=hidden;fontColor=#000000;" parent="507" vertex="1">
                    <mxGeometry x="53.1875" width="253.8125" height="30" as="geometry">
                        <mxRectangle width="253.8125" height="30" as="alternateBounds"/>
                    </mxGeometry>
                </mxCell>
                <mxCell id="510" style="shape=tableRow;horizontal=0;startSize=0;swimlaneHead=0;swimlaneBody=0;fillColor=none;collapsible=0;dropTarget=0;points=[[0,0.5],[1,0.5]];portConstraint=eastwest;top=0;left=0;right=0;bottom=0;fontColor=#000000;" parent="503" vertex="1">
                    <mxGeometry y="119" width="307" height="30" as="geometry"/>
                </mxCell>
                <mxCell id="511" style="shape=partialRectangle;connectable=0;fillColor=none;top=0;left=0;bottom=0;right=0;editable=1;overflow=hidden;" parent="510" vertex="1">
                    <mxGeometry width="53.1875" height="30" as="geometry">
                        <mxRectangle width="53.1875" height="30" as="alternateBounds"/>
                    </mxGeometry>
                </mxCell>
                <mxCell id="512" value="role_assignment_time &lt;TEXT&gt; &lt;NOT NULL&gt;" style="shape=partialRectangle;connectable=0;fillColor=none;top=0;left=0;bottom=0;right=0;align=left;spacingLeft=6;overflow=hidden;fontColor=#000000;" parent="510" vertex="1">
                    <mxGeometry x="53.1875" width="253.8125" height="30" as="geometry">
                        <mxRectangle width="253.8125" height="30" as="alternateBounds"/>
                    </mxGeometry>
                </mxCell>
                <mxCell id="528" value="Role_Permission" style="shape=table;startSize=30;container=1;collapsible=1;childLayout=tableLayout;fixedRows=1;rowLines=0;fontStyle=1;align=center;resizeLast=1;strokeColor=#000000;" parent="1" vertex="1">
                    <mxGeometry x="879" y="-4206" width="346" height="152.1" as="geometry">
                        <mxRectangle x="194" y="-3673" width="62" height="30" as="alternateBounds"/>
                    </mxGeometry>
                </mxCell>
                <mxCell id="529" style="shape=tableRow;horizontal=0;startSize=0;swimlaneHead=0;swimlaneBody=0;fillColor=none;collapsible=0;dropTarget=0;points=[[0,0.5],[1,0.5]];portConstraint=eastwest;top=0;left=0;right=0;bottom=0;" parent="528" vertex="1">
                    <mxGeometry y="30" width="346" height="30" as="geometry"/>
                </mxCell>
                <mxCell id="530" value="PK,FK1" style="shape=partialRectangle;connectable=0;fillColor=none;top=0;left=0;bottom=0;right=0;fontStyle=1;overflow=hidden;fontColor=#FF00FF;" parent="529" vertex="1">
                    <mxGeometry width="53.1875" height="30" as="geometry">
                        <mxRectangle width="53.1875" height="30" as="alternateBounds"/>
                    </mxGeometry>
                </mxCell>
                <mxCell id="531" value="role_name  &lt;TEXT&gt; &lt;NOT NULL&gt;" style="shape=partialRectangle;connectable=0;fillColor=none;top=0;left=0;bottom=0;right=0;align=left;spacingLeft=6;fontStyle=1;overflow=hidden;fontColor=#FF00FF;" parent="529" vertex="1">
                    <mxGeometry x="53.1875" width="292.8125" height="30" as="geometry">
                        <mxRectangle width="292.8125" height="30" as="alternateBounds"/>
                    </mxGeometry>
                </mxCell>
                <mxCell id="532" value="" style="shape=tableRow;horizontal=0;startSize=0;swimlaneHead=0;swimlaneBody=0;fillColor=none;collapsible=0;dropTarget=0;points=[[0,0.5],[1,0.5]];portConstraint=eastwest;top=0;left=0;right=0;bottom=0;" parent="528" vertex="1">
                    <mxGeometry y="60" width="346" height="29" as="geometry"/>
                </mxCell>
                <mxCell id="533" value="PK,FK2" style="shape=partialRectangle;connectable=0;fillColor=none;top=0;left=0;bottom=0;right=0;fontStyle=1;overflow=hidden;fontColor=#FF00FF;" parent="532" vertex="1">
                    <mxGeometry width="53.1875" height="29" as="geometry">
                        <mxRectangle width="53.1875" height="29" as="alternateBounds"/>
                    </mxGeometry>
                </mxCell>
                <mxCell id="534" value="permission_name  &lt;TEXT&gt; &lt;NOT NULL&gt;" style="shape=partialRectangle;connectable=0;fillColor=none;top=0;left=0;bottom=0;right=0;align=left;spacingLeft=6;fontStyle=1;overflow=hidden;fontColor=#FF00FF;" parent="532" vertex="1">
                    <mxGeometry x="53.1875" width="292.8125" height="29" as="geometry">
                        <mxRectangle width="292.8125" height="29" as="alternateBounds"/>
                    </mxGeometry>
                </mxCell>
                <mxCell id="535" style="shape=tableRow;horizontal=0;startSize=0;swimlaneHead=0;swimlaneBody=0;fillColor=none;collapsible=0;dropTarget=0;points=[[0,0.5],[1,0.5]];portConstraint=eastwest;top=0;left=0;right=0;bottom=0;fontColor=#000000;" parent="528" vertex="1">
                    <mxGeometry y="89" width="346" height="30" as="geometry"/>
                </mxCell>
                <mxCell id="536" style="shape=partialRectangle;connectable=0;fillColor=none;top=0;left=0;bottom=0;right=0;editable=1;overflow=hidden;" parent="535" vertex="1">
                    <mxGeometry width="53.1875" height="30" as="geometry">
                        <mxRectangle width="53.1875" height="30" as="alternateBounds"/>
                    </mxGeometry>
                </mxCell>
                <mxCell id="537" value="permission_assignment_date &lt;TEXT&gt; &lt;NOT NULL&gt;" style="shape=partialRectangle;connectable=0;fillColor=none;top=0;left=0;bottom=0;right=0;align=left;spacingLeft=6;overflow=hidden;fontColor=#000000;" parent="535" vertex="1">
                    <mxGeometry x="53.1875" width="292.8125" height="30" as="geometry">
                        <mxRectangle width="292.8125" height="30" as="alternateBounds"/>
                    </mxGeometry>
                </mxCell>
                <mxCell id="538" style="shape=tableRow;horizontal=0;startSize=0;swimlaneHead=0;swimlaneBody=0;fillColor=none;collapsible=0;dropTarget=0;points=[[0,0.5],[1,0.5]];portConstraint=eastwest;top=0;left=0;right=0;bottom=0;fontColor=#000000;" parent="528" vertex="1">
                    <mxGeometry y="119" width="346" height="30" as="geometry"/>
                </mxCell>
                <mxCell id="539" style="shape=partialRectangle;connectable=0;fillColor=none;top=0;left=0;bottom=0;right=0;editable=1;overflow=hidden;" parent="538" vertex="1">
                    <mxGeometry width="53.1875" height="30" as="geometry">
                        <mxRectangle width="53.1875" height="30" as="alternateBounds"/>
                    </mxGeometry>
                </mxCell>
                <mxCell id="540" value="permission_assignment_time &lt;TEXT&gt; &lt;NOT NULL&gt;" style="shape=partialRectangle;connectable=0;fillColor=none;top=0;left=0;bottom=0;right=0;align=left;spacingLeft=6;overflow=hidden;fontColor=#000000;" parent="538" vertex="1">
                    <mxGeometry x="53.1875" width="292.8125" height="30" as="geometry">
                        <mxRectangle width="292.8125" height="30" as="alternateBounds"/>
                    </mxGeometry>
                </mxCell>
                <mxCell id="541" value="Login" style="shape=table;startSize=30;container=1;collapsible=1;childLayout=tableLayout;fixedRows=1;rowLines=0;fontStyle=1;align=center;resizeLast=1;strokeColor=#000000;" parent="1" vertex="1">
                    <mxGeometry x="2504" y="-3711" width="307" height="182.1" as="geometry">
                        <mxRectangle x="194" y="-3673" width="62" height="30" as="alternateBounds"/>
                    </mxGeometry>
                </mxCell>
                <mxCell id="542" style="shape=tableRow;horizontal=0;startSize=0;swimlaneHead=0;swimlaneBody=0;fillColor=none;collapsible=0;dropTarget=0;points=[[0,0.5],[1,0.5]];portConstraint=eastwest;top=0;left=0;right=0;bottom=0;" parent="541" vertex="1">
                    <mxGeometry y="30" width="307" height="30" as="geometry"/>
                </mxCell>
                <mxCell id="543" value="PK,FK" style="shape=partialRectangle;connectable=0;fillColor=none;top=0;left=0;bottom=0;right=0;fontStyle=1;overflow=hidden;fontColor=#FF00FF;" parent="542" vertex="1">
                    <mxGeometry width="53.1875" height="30" as="geometry">
                        <mxRectangle width="53.1875" height="30" as="alternateBounds"/>
                    </mxGeometry>
                </mxCell>
                <mxCell id="544" value="user_name  &lt;TEXT&gt; &lt;NOT NULL&gt;" style="shape=partialRectangle;connectable=0;fillColor=none;top=0;left=0;bottom=0;right=0;align=left;spacingLeft=6;fontStyle=1;overflow=hidden;fontColor=#FF00FF;" parent="542" vertex="1">
                    <mxGeometry x="53.1875" width="253.8125" height="30" as="geometry">
                        <mxRectangle width="253.8125" height="30" as="alternateBounds"/>
                    </mxGeometry>
                </mxCell>
                <mxCell id="545" value="" style="shape=tableRow;horizontal=0;startSize=0;swimlaneHead=0;swimlaneBody=0;fillColor=none;collapsible=0;dropTarget=0;points=[[0,0.5],[1,0.5]];portConstraint=eastwest;top=0;left=0;right=0;bottom=0;fontColor=#FF0000;" parent="541" vertex="1">
                    <mxGeometry y="60" width="307" height="29" as="geometry"/>
                </mxCell>
                <mxCell id="546" value="PK" style="shape=partialRectangle;connectable=0;fillColor=none;top=0;left=0;bottom=0;right=0;fontStyle=1;overflow=hidden;fontColor=#FF0000;" parent="545" vertex="1">
                    <mxGeometry width="53.1875" height="29" as="geometry">
                        <mxRectangle width="53.1875" height="29" as="alternateBounds"/>
                    </mxGeometry>
                </mxCell>
                <mxCell id="547" value="login_date &lt;TEXT&gt; &lt;NOT NULL&gt;" style="shape=partialRectangle;connectable=0;fillColor=none;top=0;left=0;bottom=0;right=0;align=left;spacingLeft=6;fontStyle=1;overflow=hidden;fontColor=#FF0000;" parent="545" vertex="1">
                    <mxGeometry x="53.1875" width="253.8125" height="29" as="geometry">
                        <mxRectangle width="253.8125" height="29" as="alternateBounds"/>
                    </mxGeometry>
                </mxCell>
                <mxCell id="548" style="shape=tableRow;horizontal=0;startSize=0;swimlaneHead=0;swimlaneBody=0;fillColor=none;collapsible=0;dropTarget=0;points=[[0,0.5],[1,0.5]];portConstraint=eastwest;top=0;left=0;right=0;bottom=0;fontColor=#000000;" parent="541" vertex="1">
                    <mxGeometry y="89" width="307" height="30" as="geometry"/>
                </mxCell>
                <mxCell id="549" value="PK" style="shape=partialRectangle;connectable=0;fillColor=none;top=0;left=0;bottom=0;right=0;editable=1;overflow=hidden;fontColor=#FF0000;fontStyle=1" parent="548" vertex="1">
                    <mxGeometry width="53.1875" height="30" as="geometry">
                        <mxRectangle width="53.1875" height="30" as="alternateBounds"/>
                    </mxGeometry>
                </mxCell>
                <mxCell id="550" value="login_time &lt;TEXT&gt; &lt;NOT NULL&gt;" style="shape=partialRectangle;connectable=0;fillColor=none;top=0;left=0;bottom=0;right=0;align=left;spacingLeft=6;overflow=hidden;fontColor=#FF0000;fontStyle=1" parent="548" vertex="1">
                    <mxGeometry x="53.1875" width="253.8125" height="30" as="geometry">
                        <mxRectangle width="253.8125" height="30" as="alternateBounds"/>
                    </mxGeometry>
                </mxCell>
                <mxCell id="551" style="shape=tableRow;horizontal=0;startSize=0;swimlaneHead=0;swimlaneBody=0;fillColor=none;collapsible=0;dropTarget=0;points=[[0,0.5],[1,0.5]];portConstraint=eastwest;top=0;left=0;right=0;bottom=0;fontColor=#000000;" parent="541" vertex="1">
                    <mxGeometry y="119" width="307" height="30" as="geometry"/>
                </mxCell>
                <mxCell id="552" style="shape=partialRectangle;connectable=0;fillColor=none;top=0;left=0;bottom=0;right=0;editable=1;overflow=hidden;" parent="551" vertex="1">
                    <mxGeometry width="53.1875" height="30" as="geometry">
                        <mxRectangle width="53.1875" height="30" as="alternateBounds"/>
                    </mxGeometry>
                </mxCell>
                <mxCell id="553" value="logout_date &lt;TEXT&gt;" style="shape=partialRectangle;connectable=0;fillColor=none;top=0;left=0;bottom=0;right=0;align=left;spacingLeft=6;overflow=hidden;fontColor=#000000;" parent="551" vertex="1">
                    <mxGeometry x="53.1875" width="253.8125" height="30" as="geometry">
                        <mxRectangle width="253.8125" height="30" as="alternateBounds"/>
                    </mxGeometry>
                </mxCell>
                <mxCell id="557" style="shape=tableRow;horizontal=0;startSize=0;swimlaneHead=0;swimlaneBody=0;fillColor=none;collapsible=0;dropTarget=0;points=[[0,0.5],[1,0.5]];portConstraint=eastwest;top=0;left=0;right=0;bottom=0;fontColor=#000000;" parent="541" vertex="1">
                    <mxGeometry y="149" width="307" height="30" as="geometry"/>
                </mxCell>
                <mxCell id="558" style="shape=partialRectangle;connectable=0;fillColor=none;top=0;left=0;bottom=0;right=0;editable=1;overflow=hidden;" parent="557" vertex="1">
                    <mxGeometry width="53.1875" height="30" as="geometry">
                        <mxRectangle width="53.1875" height="30" as="alternateBounds"/>
                    </mxGeometry>
                </mxCell>
                <mxCell id="559" value="logout_date &lt;TEXT&gt;" style="shape=partialRectangle;connectable=0;fillColor=none;top=0;left=0;bottom=0;right=0;align=left;spacingLeft=6;overflow=hidden;fontColor=#000000;" parent="557" vertex="1">
                    <mxGeometry x="53.1875" width="253.8125" height="30" as="geometry">
                        <mxRectangle width="253.8125" height="30" as="alternateBounds"/>
                    </mxGeometry>
                </mxCell>
                <mxCell id="560" value="Question" style="shape=table;startSize=30;container=1;collapsible=1;childLayout=tableLayout;fixedRows=1;rowLines=0;fontStyle=1;align=center;resizeLast=1;strokeColor=#000000;" parent="1" vertex="1">
                    <mxGeometry x="2376" y="-5043" width="273" height="363" as="geometry">
                        <mxRectangle x="194" y="-3673" width="62" height="30" as="alternateBounds"/>
                    </mxGeometry>
                </mxCell>
                <mxCell id="561" value="" style="shape=tableRow;horizontal=0;startSize=0;swimlaneHead=0;swimlaneBody=0;fillColor=none;collapsible=0;dropTarget=0;points=[[0,0.5],[1,0.5]];portConstraint=eastwest;top=0;left=0;right=0;bottom=0;" parent="560" vertex="1">
                    <mxGeometry y="30" width="273" height="30" as="geometry"/>
                </mxCell>
                <mxCell id="562" value="PK" style="shape=partialRectangle;connectable=0;fillColor=none;top=0;left=0;bottom=0;right=0;fontStyle=1;overflow=hidden;fontColor=#3333FF;" parent="561" vertex="1">
                    <mxGeometry width="33.75006103515625" height="30" as="geometry">
                        <mxRectangle width="33.75006103515625" height="30" as="alternateBounds"/>
                    </mxGeometry>
                </mxCell>
                <mxCell id="563" value="question_id  &lt;TEXT&gt; &lt;NOT NULL&gt;" style="shape=partialRectangle;connectable=0;fillColor=none;top=0;left=0;bottom=0;right=0;align=left;spacingLeft=6;fontStyle=1;overflow=hidden;fontColor=#3333FF;" parent="561" vertex="1">
                    <mxGeometry x="33.75006103515625" width="239.24993896484375" height="30" as="geometry">
                        <mxRectangle width="239.24993896484375" height="30" as="alternateBounds"/>
                    </mxGeometry>
                </mxCell>
                <mxCell id="564" value="" style="shape=tableRow;horizontal=0;startSize=0;swimlaneHead=0;swimlaneBody=0;fillColor=none;collapsible=0;dropTarget=0;points=[[0,0.5],[1,0.5]];portConstraint=eastwest;top=0;left=0;right=0;bottom=0;fontColor=#000000;" parent="560" vertex="1">
                    <mxGeometry y="60" width="273" height="30" as="geometry"/>
                </mxCell>
                <mxCell id="565" value="" style="shape=partialRectangle;connectable=0;fillColor=none;top=0;left=0;bottom=0;right=0;editable=1;overflow=hidden;fontColor=#000000;" parent="564" vertex="1">
                    <mxGeometry width="33.75006103515625" height="30" as="geometry">
                        <mxRectangle width="33.75006103515625" height="30" as="alternateBounds"/>
                    </mxGeometry>
                </mxCell>
                <mxCell id="566" value="topic &lt;TEXT&gt; &lt;NOT NULL&gt;" style="shape=partialRectangle;connectable=0;fillColor=none;top=0;left=0;bottom=0;right=0;align=left;spacingLeft=6;overflow=hidden;fontColor=#000000;fontStyle=0" parent="564" vertex="1">
                    <mxGeometry x="33.75006103515625" width="239.24993896484375" height="30" as="geometry">
                        <mxRectangle width="239.24993896484375" height="30" as="alternateBounds"/>
                    </mxGeometry>
                </mxCell>
                <mxCell id="567" value="" style="shape=tableRow;horizontal=0;startSize=0;swimlaneHead=0;swimlaneBody=0;fillColor=none;collapsible=0;dropTarget=0;points=[[0,0.5],[1,0.5]];portConstraint=eastwest;top=0;left=0;right=0;bottom=0;fontColor=#000000;" parent="560" vertex="1">
                    <mxGeometry y="90" width="273" height="30" as="geometry"/>
                </mxCell>
                <mxCell id="568" value="" style="shape=partialRectangle;connectable=0;fillColor=none;top=0;left=0;bottom=0;right=0;editable=1;overflow=hidden;" parent="567" vertex="1">
                    <mxGeometry width="33.75006103515625" height="30" as="geometry">
                        <mxRectangle width="33.75006103515625" height="30" as="alternateBounds"/>
                    </mxGeometry>
                </mxCell>
                <mxCell id="569" value="subtopic &lt;TEXT&gt;" style="shape=partialRectangle;connectable=0;fillColor=none;top=0;left=0;bottom=0;right=0;align=left;spacingLeft=6;overflow=hidden;fontColor=#000000;" parent="567" vertex="1">
                    <mxGeometry x="33.75006103515625" width="239.24993896484375" height="30" as="geometry">
                        <mxRectangle width="239.24993896484375" height="30" as="alternateBounds"/>
                    </mxGeometry>
                </mxCell>
                <mxCell id="570" style="shape=tableRow;horizontal=0;startSize=0;swimlaneHead=0;swimlaneBody=0;fillColor=none;collapsible=0;dropTarget=0;points=[[0,0.5],[1,0.5]];portConstraint=eastwest;top=0;left=0;right=0;bottom=0;fontColor=#000000;" parent="560" vertex="1">
                    <mxGeometry y="120" width="273" height="30" as="geometry"/>
                </mxCell>
                <mxCell id="571" style="shape=partialRectangle;connectable=0;fillColor=none;top=0;left=0;bottom=0;right=0;editable=1;overflow=hidden;" parent="570" vertex="1">
                    <mxGeometry width="33.75006103515625" height="30" as="geometry">
                        <mxRectangle width="33.75006103515625" height="30" as="alternateBounds"/>
                    </mxGeometry>
                </mxCell>
                <mxCell id="572" value="text &lt;TEXT&gt; " style="shape=partialRectangle;connectable=0;fillColor=none;top=0;left=0;bottom=0;right=0;align=left;spacingLeft=6;overflow=hidden;fontColor=#000000;" parent="570" vertex="1">
                    <mxGeometry x="33.75006103515625" width="239.24993896484375" height="30" as="geometry">
                        <mxRectangle width="239.24993896484375" height="30" as="alternateBounds"/>
                    </mxGeometry>
                </mxCell>
                <mxCell id="573" style="shape=tableRow;horizontal=0;startSize=0;swimlaneHead=0;swimlaneBody=0;fillColor=none;collapsible=0;dropTarget=0;points=[[0,0.5],[1,0.5]];portConstraint=eastwest;top=0;left=0;right=0;bottom=0;fontColor=#000000;" parent="560" vertex="1">
                    <mxGeometry y="150" width="273" height="30" as="geometry"/>
                </mxCell>
                <mxCell id="574" style="shape=partialRectangle;connectable=0;fillColor=none;top=0;left=0;bottom=0;right=0;editable=1;overflow=hidden;" parent="573" vertex="1">
                    <mxGeometry width="33.75006103515625" height="30" as="geometry">
                        <mxRectangle width="33.75006103515625" height="30" as="alternateBounds"/>
                    </mxGeometry>
                </mxCell>
                <mxCell id="575" value="image &lt;TEXT&gt;" style="shape=partialRectangle;connectable=0;fillColor=none;top=0;left=0;bottom=0;right=0;align=left;spacingLeft=6;overflow=hidden;fontColor=#000000;" parent="573" vertex="1">
                    <mxGeometry x="33.75006103515625" width="239.24993896484375" height="30" as="geometry">
                        <mxRectangle width="239.24993896484375" height="30" as="alternateBounds"/>
                    </mxGeometry>
                </mxCell>
                <mxCell id="576" style="shape=tableRow;horizontal=0;startSize=0;swimlaneHead=0;swimlaneBody=0;fillColor=none;collapsible=0;dropTarget=0;points=[[0,0.5],[1,0.5]];portConstraint=eastwest;top=0;left=0;right=0;bottom=0;fontColor=#000000;" parent="560" vertex="1">
                    <mxGeometry y="180" width="273" height="30" as="geometry"/>
                </mxCell>
                <mxCell id="577" style="shape=partialRectangle;connectable=0;fillColor=none;top=0;left=0;bottom=0;right=0;editable=1;overflow=hidden;" parent="576" vertex="1">
                    <mxGeometry width="33.75006103515625" height="30" as="geometry">
                        <mxRectangle width="33.75006103515625" height="30" as="alternateBounds"/>
                    </mxGeometry>
                </mxCell>
                <mxCell id="578" value="difficulty &lt;TEXT&gt; &lt;NOT NULL&gt;" style="shape=partialRectangle;connectable=0;fillColor=none;top=0;left=0;bottom=0;right=0;align=left;spacingLeft=6;overflow=hidden;fontColor=#000000;" parent="576" vertex="1">
                    <mxGeometry x="33.75006103515625" width="239.24993896484375" height="30" as="geometry">
                        <mxRectangle width="239.24993896484375" height="30" as="alternateBounds"/>
                    </mxGeometry>
                </mxCell>
                <mxCell id="579" style="shape=tableRow;horizontal=0;startSize=0;swimlaneHead=0;swimlaneBody=0;fillColor=none;collapsible=0;dropTarget=0;points=[[0,0.5],[1,0.5]];portConstraint=eastwest;top=0;left=0;right=0;bottom=0;fontColor=#000000;" parent="560" vertex="1">
                    <mxGeometry y="210" width="273" height="30" as="geometry"/>
                </mxCell>
                <mxCell id="580" style="shape=partialRectangle;connectable=0;fillColor=none;top=0;left=0;bottom=0;right=0;editable=1;overflow=hidden;" parent="579" vertex="1">
                    <mxGeometry width="33.75006103515625" height="30" as="geometry">
                        <mxRectangle width="33.75006103515625" height="30" as="alternateBounds"/>
                    </mxGeometry>
                </mxCell>
                <mxCell id="581" value="type &lt;TEXT&gt; &lt;NOT NULL&gt;" style="shape=partialRectangle;connectable=0;fillColor=none;top=0;left=0;bottom=0;right=0;align=left;spacingLeft=6;overflow=hidden;fontColor=#000000;" parent="579" vertex="1">
                    <mxGeometry x="33.75006103515625" width="239.24993896484375" height="30" as="geometry">
                        <mxRectangle width="239.24993896484375" height="30" as="alternateBounds"/>
                    </mxGeometry>
                </mxCell>
                <mxCell id="582" style="shape=tableRow;horizontal=0;startSize=0;swimlaneHead=0;swimlaneBody=0;fillColor=none;collapsible=0;dropTarget=0;points=[[0,0.5],[1,0.5]];portConstraint=eastwest;top=0;left=0;right=0;bottom=0;fontColor=#000000;" parent="560" vertex="1">
                    <mxGeometry y="240" width="273" height="30" as="geometry"/>
                </mxCell>
                <mxCell id="583" style="shape=partialRectangle;connectable=0;fillColor=none;top=0;left=0;bottom=0;right=0;editable=1;overflow=hidden;" parent="582" vertex="1">
                    <mxGeometry width="33.75006103515625" height="30" as="geometry">
                        <mxRectangle width="33.75006103515625" height="30" as="alternateBounds"/>
                    </mxGeometry>
                </mxCell>
                <mxCell id="584" value="points &lt;INTEGER&gt; &lt;NOT NULL&gt;" style="shape=partialRectangle;connectable=0;fillColor=none;top=0;left=0;bottom=0;right=0;align=left;spacingLeft=6;overflow=hidden;fontColor=#000000;" parent="582" vertex="1">
                    <mxGeometry x="33.75006103515625" width="239.24993896484375" height="30" as="geometry">
                        <mxRectangle width="239.24993896484375" height="30" as="alternateBounds"/>
                    </mxGeometry>
                </mxCell>
                <mxCell id="585" style="shape=tableRow;horizontal=0;startSize=0;swimlaneHead=0;swimlaneBody=0;fillColor=none;collapsible=0;dropTarget=0;points=[[0,0.5],[1,0.5]];portConstraint=eastwest;top=0;left=0;right=0;bottom=0;fontColor=#000000;" parent="560" vertex="1">
                    <mxGeometry y="270" width="273" height="30" as="geometry"/>
                </mxCell>
                <mxCell id="586" style="shape=partialRectangle;connectable=0;fillColor=none;top=0;left=0;bottom=0;right=0;editable=1;overflow=hidden;" parent="585" vertex="1">
                    <mxGeometry width="33.75006103515625" height="30" as="geometry">
                        <mxRectangle width="33.75006103515625" height="30" as="alternateBounds"/>
                    </mxGeometry>
                </mxCell>
                <mxCell id="587" value="creation_date &lt;TEXT&gt; &lt;NOT NULL&gt;" style="shape=partialRectangle;connectable=0;fillColor=none;top=0;left=0;bottom=0;right=0;align=left;spacingLeft=6;overflow=hidden;fontColor=#000000;" parent="585" vertex="1">
                    <mxGeometry x="33.75006103515625" width="239.24993896484375" height="30" as="geometry">
                        <mxRectangle width="239.24993896484375" height="30" as="alternateBounds"/>
                    </mxGeometry>
                </mxCell>
                <mxCell id="588" style="shape=tableRow;horizontal=0;startSize=0;swimlaneHead=0;swimlaneBody=0;fillColor=none;collapsible=0;dropTarget=0;points=[[0,0.5],[1,0.5]];portConstraint=eastwest;top=0;left=0;right=0;bottom=0;fontColor=#000000;" parent="560" vertex="1">
                    <mxGeometry y="300" width="273" height="30" as="geometry"/>
                </mxCell>
                <mxCell id="589" style="shape=partialRectangle;connectable=0;fillColor=none;top=0;left=0;bottom=0;right=0;editable=1;overflow=hidden;" parent="588" vertex="1">
                    <mxGeometry width="33.75006103515625" height="30" as="geometry">
                        <mxRectangle width="33.75006103515625" height="30" as="alternateBounds"/>
                    </mxGeometry>
                </mxCell>
                <mxCell id="590" value="creation_time &lt;TEXT&gt; &lt;NOT NULL&gt;" style="shape=partialRectangle;connectable=0;fillColor=none;top=0;left=0;bottom=0;right=0;align=left;spacingLeft=6;overflow=hidden;fontColor=#000000;" parent="588" vertex="1">
                    <mxGeometry x="33.75006103515625" width="239.24993896484375" height="30" as="geometry">
                        <mxRectangle width="239.24993896484375" height="30" as="alternateBounds"/>
                    </mxGeometry>
                </mxCell>
                <mxCell id="591" style="shape=tableRow;horizontal=0;startSize=0;swimlaneHead=0;swimlaneBody=0;fillColor=none;collapsible=0;dropTarget=0;points=[[0,0.5],[1,0.5]];portConstraint=eastwest;top=0;left=0;right=0;bottom=0;fontColor=#000000;" parent="560" vertex="1">
                    <mxGeometry y="330" width="273" height="30" as="geometry"/>
                </mxCell>
                <mxCell id="592" style="shape=partialRectangle;connectable=0;fillColor=none;top=0;left=0;bottom=0;right=0;editable=1;overflow=hidden;" parent="591" vertex="1">
                    <mxGeometry width="33.75006103515625" height="30" as="geometry">
                        <mxRectangle width="33.75006103515625" height="30" as="alternateBounds"/>
                    </mxGeometry>
                </mxCell>
                <mxCell id="593" value="creator_user_name &lt;TEXT&gt; &lt;NOT NULL&gt;" style="shape=partialRectangle;connectable=0;fillColor=none;top=0;left=0;bottom=0;right=0;align=left;spacingLeft=6;overflow=hidden;fontColor=#000000;" parent="591" vertex="1">
                    <mxGeometry x="33.75006103515625" width="239.24993896484375" height="30" as="geometry">
                        <mxRectangle width="239.24993896484375" height="30" as="alternateBounds"/>
                    </mxGeometry>
                </mxCell>
                <mxCell id="594" value="Option" style="shape=table;startSize=30;container=1;collapsible=1;childLayout=tableLayout;fixedRows=1;rowLines=0;fontStyle=1;align=center;resizeLast=1;strokeColor=#000000;" parent="1" vertex="1">
                    <mxGeometry x="2848" y="-4984" width="292" height="183" as="geometry">
                        <mxRectangle x="194" y="-3673" width="62" height="30" as="alternateBounds"/>
                    </mxGeometry>
                </mxCell>
                <mxCell id="595" value="" style="shape=tableRow;horizontal=0;startSize=0;swimlaneHead=0;swimlaneBody=0;fillColor=none;collapsible=0;dropTarget=0;points=[[0,0.5],[1,0.5]];portConstraint=eastwest;top=0;left=0;right=0;bottom=0;" parent="594" vertex="1">
                    <mxGeometry y="30" width="292" height="30" as="geometry"/>
                </mxCell>
                <mxCell id="596" value="PK" style="shape=partialRectangle;connectable=0;fillColor=none;top=0;left=0;bottom=0;right=0;fontStyle=1;overflow=hidden;fontColor=#3333FF;" parent="595" vertex="1">
                    <mxGeometry width="33.75006103515625" height="30" as="geometry">
                        <mxRectangle width="33.75006103515625" height="30" as="alternateBounds"/>
                    </mxGeometry>
                </mxCell>
                <mxCell id="597" value="option_id  &lt;TEXT&gt; &lt;NOT NULL&gt;" style="shape=partialRectangle;connectable=0;fillColor=none;top=0;left=0;bottom=0;right=0;align=left;spacingLeft=6;fontStyle=1;overflow=hidden;fontColor=#3333FF;" parent="595" vertex="1">
                    <mxGeometry x="33.75006103515625" width="258.24993896484375" height="30" as="geometry">
                        <mxRectangle width="258.24993896484375" height="30" as="alternateBounds"/>
                    </mxGeometry>
                </mxCell>
                <mxCell id="598" value="" style="shape=tableRow;horizontal=0;startSize=0;swimlaneHead=0;swimlaneBody=0;fillColor=none;collapsible=0;dropTarget=0;points=[[0,0.5],[1,0.5]];portConstraint=eastwest;top=0;left=0;right=0;bottom=0;fontColor=#000000;" parent="594" vertex="1">
                    <mxGeometry y="60" width="292" height="30" as="geometry"/>
                </mxCell>
                <mxCell id="599" value="FK" style="shape=partialRectangle;connectable=0;fillColor=none;top=0;left=0;bottom=0;right=0;editable=1;overflow=hidden;fontColor=#FF0000;fontStyle=1" parent="598" vertex="1">
                    <mxGeometry width="33.75006103515625" height="30" as="geometry">
                        <mxRectangle width="33.75006103515625" height="30" as="alternateBounds"/>
                    </mxGeometry>
                </mxCell>
                <mxCell id="600" value="question_id  &lt;TEXT&gt; &lt;NOT NULL&gt;" style="shape=partialRectangle;connectable=0;fillColor=none;top=0;left=0;bottom=0;right=0;align=left;spacingLeft=6;overflow=hidden;fontColor=#FF0000;fontStyle=1" parent="598" vertex="1">
                    <mxGeometry x="33.75006103515625" width="258.24993896484375" height="30" as="geometry">
                        <mxRectangle width="258.24993896484375" height="30" as="alternateBounds"/>
                    </mxGeometry>
                </mxCell>
                <mxCell id="604" style="shape=tableRow;horizontal=0;startSize=0;swimlaneHead=0;swimlaneBody=0;fillColor=none;collapsible=0;dropTarget=0;points=[[0,0.5],[1,0.5]];portConstraint=eastwest;top=0;left=0;right=0;bottom=0;fontColor=#000000;" parent="594" vertex="1">
                    <mxGeometry y="90" width="292" height="30" as="geometry"/>
                </mxCell>
                <mxCell id="605" style="shape=partialRectangle;connectable=0;fillColor=none;top=0;left=0;bottom=0;right=0;editable=1;overflow=hidden;" parent="604" vertex="1">
                    <mxGeometry width="33.75006103515625" height="30" as="geometry">
                        <mxRectangle width="33.75006103515625" height="30" as="alternateBounds"/>
                    </mxGeometry>
                </mxCell>
                <mxCell id="606" value="text &lt;TEXT&gt; " style="shape=partialRectangle;connectable=0;fillColor=none;top=0;left=0;bottom=0;right=0;align=left;spacingLeft=6;overflow=hidden;fontColor=#000000;" parent="604" vertex="1">
                    <mxGeometry x="33.75006103515625" width="258.24993896484375" height="30" as="geometry">
                        <mxRectangle width="258.24993896484375" height="30" as="alternateBounds"/>
                    </mxGeometry>
                </mxCell>
                <mxCell id="607" style="shape=tableRow;horizontal=0;startSize=0;swimlaneHead=0;swimlaneBody=0;fillColor=none;collapsible=0;dropTarget=0;points=[[0,0.5],[1,0.5]];portConstraint=eastwest;top=0;left=0;right=0;bottom=0;fontColor=#000000;" parent="594" vertex="1">
                    <mxGeometry y="120" width="292" height="30" as="geometry"/>
                </mxCell>
                <mxCell id="608" style="shape=partialRectangle;connectable=0;fillColor=none;top=0;left=0;bottom=0;right=0;editable=1;overflow=hidden;" parent="607" vertex="1">
                    <mxGeometry width="33.75006103515625" height="30" as="geometry">
                        <mxRectangle width="33.75006103515625" height="30" as="alternateBounds"/>
                    </mxGeometry>
                </mxCell>
                <mxCell id="609" value="image &lt;TEXT&gt;" style="shape=partialRectangle;connectable=0;fillColor=none;top=0;left=0;bottom=0;right=0;align=left;spacingLeft=6;overflow=hidden;fontColor=#000000;" parent="607" vertex="1">
                    <mxGeometry x="33.75006103515625" width="258.24993896484375" height="30" as="geometry">
                        <mxRectangle width="258.24993896484375" height="30" as="alternateBounds"/>
                    </mxGeometry>
                </mxCell>
                <mxCell id="610" style="shape=tableRow;horizontal=0;startSize=0;swimlaneHead=0;swimlaneBody=0;fillColor=none;collapsible=0;dropTarget=0;points=[[0,0.5],[1,0.5]];portConstraint=eastwest;top=0;left=0;right=0;bottom=0;fontColor=#000000;" parent="594" vertex="1">
                    <mxGeometry y="150" width="292" height="30" as="geometry"/>
                </mxCell>
                <mxCell id="611" style="shape=partialRectangle;connectable=0;fillColor=none;top=0;left=0;bottom=0;right=0;editable=1;overflow=hidden;" parent="610" vertex="1">
                    <mxGeometry width="33.75006103515625" height="30" as="geometry">
                        <mxRectangle width="33.75006103515625" height="30" as="alternateBounds"/>
                    </mxGeometry>
                </mxCell>
                <mxCell id="612" value="is_correct_answer &lt;INTEGER&gt; &lt;NOT NULL&gt;" style="shape=partialRectangle;connectable=0;fillColor=none;top=0;left=0;bottom=0;right=0;align=left;spacingLeft=6;overflow=hidden;fontColor=#000000;" parent="610" vertex="1">
                    <mxGeometry x="33.75006103515625" width="258.24993896484375" height="30" as="geometry">
                        <mxRectangle width="258.24993896484375" height="30" as="alternateBounds"/>
                    </mxGeometry>
                </mxCell>
                <mxCell id="628" value="Exam" style="shape=table;startSize=30;container=1;collapsible=1;childLayout=tableLayout;fixedRows=1;rowLines=0;fontStyle=1;align=center;resizeLast=1;strokeColor=#000000;" parent="1" vertex="1">
                    <mxGeometry x="1941" y="-4708" width="302" height="393" as="geometry">
                        <mxRectangle x="194" y="-3673" width="62" height="30" as="alternateBounds"/>
                    </mxGeometry>
                </mxCell>
                <mxCell id="629" value="" style="shape=tableRow;horizontal=0;startSize=0;swimlaneHead=0;swimlaneBody=0;fillColor=none;collapsible=0;dropTarget=0;points=[[0,0.5],[1,0.5]];portConstraint=eastwest;top=0;left=0;right=0;bottom=0;" parent="628" vertex="1">
                    <mxGeometry y="30" width="302" height="30" as="geometry"/>
                </mxCell>
                <mxCell id="630" value="PK" style="shape=partialRectangle;connectable=0;fillColor=none;top=0;left=0;bottom=0;right=0;fontStyle=1;overflow=hidden;fontColor=#3333FF;" parent="629" vertex="1">
                    <mxGeometry width="33.75006103515625" height="30" as="geometry">
                        <mxRectangle width="33.75006103515625" height="30" as="alternateBounds"/>
                    </mxGeometry>
                </mxCell>
                <mxCell id="631" value="exam_id  &lt;TEXT&gt; &lt;NOT NULL&gt;" style="shape=partialRectangle;connectable=0;fillColor=none;top=0;left=0;bottom=0;right=0;align=left;spacingLeft=6;fontStyle=1;overflow=hidden;fontColor=#3333FF;" parent="629" vertex="1">
                    <mxGeometry x="33.75006103515625" width="268.24993896484375" height="30" as="geometry">
                        <mxRectangle width="268.24993896484375" height="30" as="alternateBounds"/>
                    </mxGeometry>
                </mxCell>
                <mxCell id="632" value="" style="shape=tableRow;horizontal=0;startSize=0;swimlaneHead=0;swimlaneBody=0;fillColor=none;collapsible=0;dropTarget=0;points=[[0,0.5],[1,0.5]];portConstraint=eastwest;top=0;left=0;right=0;bottom=0;fontColor=#000000;" parent="628" vertex="1">
                    <mxGeometry y="60" width="302" height="30" as="geometry"/>
                </mxCell>
                <mxCell id="633" value="" style="shape=partialRectangle;connectable=0;fillColor=none;top=0;left=0;bottom=0;right=0;editable=1;overflow=hidden;fontColor=#000000;" parent="632" vertex="1">
                    <mxGeometry width="33.75006103515625" height="30" as="geometry">
                        <mxRectangle width="33.75006103515625" height="30" as="alternateBounds"/>
                    </mxGeometry>
                </mxCell>
                <mxCell id="634" value="exam_name &lt;TEXT&gt; &lt;NOT NULL&gt;" style="shape=partialRectangle;connectable=0;fillColor=none;top=0;left=0;bottom=0;right=0;align=left;spacingLeft=6;overflow=hidden;fontColor=#000000;fontStyle=0" parent="632" vertex="1">
                    <mxGeometry x="33.75006103515625" width="268.24993896484375" height="30" as="geometry">
                        <mxRectangle width="268.24993896484375" height="30" as="alternateBounds"/>
                    </mxGeometry>
                </mxCell>
                <mxCell id="635" value="" style="shape=tableRow;horizontal=0;startSize=0;swimlaneHead=0;swimlaneBody=0;fillColor=none;collapsible=0;dropTarget=0;points=[[0,0.5],[1,0.5]];portConstraint=eastwest;top=0;left=0;right=0;bottom=0;fontColor=#000000;" parent="628" vertex="1">
                    <mxGeometry y="90" width="302" height="30" as="geometry"/>
                </mxCell>
                <mxCell id="636" value="" style="shape=partialRectangle;connectable=0;fillColor=none;top=0;left=0;bottom=0;right=0;editable=1;overflow=hidden;" parent="635" vertex="1">
                    <mxGeometry width="33.75006103515625" height="30" as="geometry">
                        <mxRectangle width="33.75006103515625" height="30" as="alternateBounds"/>
                    </mxGeometry>
                </mxCell>
                <mxCell id="637" value="exam_date &lt;TEXT&gt; &lt;NOT NULL&gt;" style="shape=partialRectangle;connectable=0;fillColor=none;top=0;left=0;bottom=0;right=0;align=left;spacingLeft=6;overflow=hidden;fontColor=#000000;" parent="635" vertex="1">
                    <mxGeometry x="33.75006103515625" width="268.24993896484375" height="30" as="geometry">
                        <mxRectangle width="268.24993896484375" height="30" as="alternateBounds"/>
                    </mxGeometry>
                </mxCell>
                <mxCell id="638" style="shape=tableRow;horizontal=0;startSize=0;swimlaneHead=0;swimlaneBody=0;fillColor=none;collapsible=0;dropTarget=0;points=[[0,0.5],[1,0.5]];portConstraint=eastwest;top=0;left=0;right=0;bottom=0;fontColor=#000000;" parent="628" vertex="1">
                    <mxGeometry y="120" width="302" height="30" as="geometry"/>
                </mxCell>
                <mxCell id="639" style="shape=partialRectangle;connectable=0;fillColor=none;top=0;left=0;bottom=0;right=0;editable=1;overflow=hidden;" parent="638" vertex="1">
                    <mxGeometry width="33.75006103515625" height="30" as="geometry">
                        <mxRectangle width="33.75006103515625" height="30" as="alternateBounds"/>
                    </mxGeometry>
                </mxCell>
                <mxCell id="640" value="start_time &lt;TEXT&gt; &lt;NOT NULL&gt;" style="shape=partialRectangle;connectable=0;fillColor=none;top=0;left=0;bottom=0;right=0;align=left;spacingLeft=6;overflow=hidden;fontColor=#000000;" parent="638" vertex="1">
                    <mxGeometry x="33.75006103515625" width="268.24993896484375" height="30" as="geometry">
                        <mxRectangle width="268.24993896484375" height="30" as="alternateBounds"/>
                    </mxGeometry>
                </mxCell>
                <mxCell id="641" style="shape=tableRow;horizontal=0;startSize=0;swimlaneHead=0;swimlaneBody=0;fillColor=none;collapsible=0;dropTarget=0;points=[[0,0.5],[1,0.5]];portConstraint=eastwest;top=0;left=0;right=0;bottom=0;fontColor=#000000;" parent="628" vertex="1">
                    <mxGeometry y="150" width="302" height="30" as="geometry"/>
                </mxCell>
                <mxCell id="642" style="shape=partialRectangle;connectable=0;fillColor=none;top=0;left=0;bottom=0;right=0;editable=1;overflow=hidden;" parent="641" vertex="1">
                    <mxGeometry width="33.75006103515625" height="30" as="geometry">
                        <mxRectangle width="33.75006103515625" height="30" as="alternateBounds"/>
                    </mxGeometry>
                </mxCell>
                <mxCell id="643" value="duration &lt;INTEGER&gt; &lt;NOT NULL&gt;" style="shape=partialRectangle;connectable=0;fillColor=none;top=0;left=0;bottom=0;right=0;align=left;spacingLeft=6;overflow=hidden;fontColor=#000000;" parent="641" vertex="1">
                    <mxGeometry x="33.75006103515625" width="268.24993896484375" height="30" as="geometry">
                        <mxRectangle width="268.24993896484375" height="30" as="alternateBounds"/>
                    </mxGeometry>
                </mxCell>
                <mxCell id="644" style="shape=tableRow;horizontal=0;startSize=0;swimlaneHead=0;swimlaneBody=0;fillColor=none;collapsible=0;dropTarget=0;points=[[0,0.5],[1,0.5]];portConstraint=eastwest;top=0;left=0;right=0;bottom=0;fontColor=#000000;" parent="628" vertex="1">
                    <mxGeometry y="180" width="302" height="30" as="geometry"/>
                </mxCell>
                <mxCell id="645" style="shape=partialRectangle;connectable=0;fillColor=none;top=0;left=0;bottom=0;right=0;editable=1;overflow=hidden;" parent="644" vertex="1">
                    <mxGeometry width="33.75006103515625" height="30" as="geometry">
                        <mxRectangle width="33.75006103515625" height="30" as="alternateBounds"/>
                    </mxGeometry>
                </mxCell>
                <mxCell id="646" value="creation_date &lt;TEXT&gt; &lt;NOT NULL&gt;" style="shape=partialRectangle;connectable=0;fillColor=none;top=0;left=0;bottom=0;right=0;align=left;spacingLeft=6;overflow=hidden;fontColor=#000000;" parent="644" vertex="1">
                    <mxGeometry x="33.75006103515625" width="268.24993896484375" height="30" as="geometry">
                        <mxRectangle width="268.24993896484375" height="30" as="alternateBounds"/>
                    </mxGeometry>
                </mxCell>
                <mxCell id="647" style="shape=tableRow;horizontal=0;startSize=0;swimlaneHead=0;swimlaneBody=0;fillColor=none;collapsible=0;dropTarget=0;points=[[0,0.5],[1,0.5]];portConstraint=eastwest;top=0;left=0;right=0;bottom=0;fontColor=#000000;" parent="628" vertex="1">
                    <mxGeometry y="210" width="302" height="30" as="geometry"/>
                </mxCell>
                <mxCell id="648" style="shape=partialRectangle;connectable=0;fillColor=none;top=0;left=0;bottom=0;right=0;editable=1;overflow=hidden;" parent="647" vertex="1">
                    <mxGeometry width="33.75006103515625" height="30" as="geometry">
                        <mxRectangle width="33.75006103515625" height="30" as="alternateBounds"/>
                    </mxGeometry>
                </mxCell>
                <mxCell id="649" value="creation_time &lt;TEXT&gt; &lt;NOT NULL&gt;" style="shape=partialRectangle;connectable=0;fillColor=none;top=0;left=0;bottom=0;right=0;align=left;spacingLeft=6;overflow=hidden;fontColor=#000000;" parent="647" vertex="1">
                    <mxGeometry x="33.75006103515625" width="268.24993896484375" height="30" as="geometry">
                        <mxRectangle width="268.24993896484375" height="30" as="alternateBounds"/>
                    </mxGeometry>
                </mxCell>
                <mxCell id="662" style="shape=tableRow;horizontal=0;startSize=0;swimlaneHead=0;swimlaneBody=0;fillColor=none;collapsible=0;dropTarget=0;points=[[0,0.5],[1,0.5]];portConstraint=eastwest;top=0;left=0;right=0;bottom=0;fontColor=#000000;" parent="628" vertex="1">
                    <mxGeometry y="240" width="302" height="30" as="geometry"/>
                </mxCell>
                <mxCell id="663" style="shape=partialRectangle;connectable=0;fillColor=none;top=0;left=0;bottom=0;right=0;editable=1;overflow=hidden;" parent="662" vertex="1">
                    <mxGeometry width="33.75006103515625" height="30" as="geometry">
                        <mxRectangle width="33.75006103515625" height="30" as="alternateBounds"/>
                    </mxGeometry>
                </mxCell>
                <mxCell id="664" value="has_nagative_score &lt;INTEGER&gt; &lt;NOT NULL&gt;" style="shape=partialRectangle;connectable=0;fillColor=none;top=0;left=0;bottom=0;right=0;align=left;spacingLeft=6;overflow=hidden;fontColor=#000000;" parent="662" vertex="1">
                    <mxGeometry x="33.75006103515625" width="268.24993896484375" height="30" as="geometry">
                        <mxRectangle width="268.24993896484375" height="30" as="alternateBounds"/>
                    </mxGeometry>
                </mxCell>
                <mxCell id="665" style="shape=tableRow;horizontal=0;startSize=0;swimlaneHead=0;swimlaneBody=0;fillColor=none;collapsible=0;dropTarget=0;points=[[0,0.5],[1,0.5]];portConstraint=eastwest;top=0;left=0;right=0;bottom=0;fontColor=#000000;" parent="628" vertex="1">
                    <mxGeometry y="270" width="302" height="30" as="geometry"/>
                </mxCell>
                <mxCell id="666" style="shape=partialRectangle;connectable=0;fillColor=none;top=0;left=0;bottom=0;right=0;editable=1;overflow=hidden;" parent="665" vertex="1">
                    <mxGeometry width="33.75006103515625" height="30" as="geometry">
                        <mxRectangle width="33.75006103515625" height="30" as="alternateBounds"/>
                    </mxGeometry>
                </mxCell>
                <mxCell id="667" value="passing_score &lt;INTEGER&gt; &lt;NOT NULL&gt;" style="shape=partialRectangle;connectable=0;fillColor=none;top=0;left=0;bottom=0;right=0;align=left;spacingLeft=6;overflow=hidden;fontColor=#000000;" parent="665" vertex="1">
                    <mxGeometry x="33.75006103515625" width="268.24993896484375" height="30" as="geometry">
                        <mxRectangle width="268.24993896484375" height="30" as="alternateBounds"/>
                    </mxGeometry>
                </mxCell>
                <mxCell id="668" style="shape=tableRow;horizontal=0;startSize=0;swimlaneHead=0;swimlaneBody=0;fillColor=none;collapsible=0;dropTarget=0;points=[[0,0.5],[1,0.5]];portConstraint=eastwest;top=0;left=0;right=0;bottom=0;fontColor=#000000;" parent="628" vertex="1">
                    <mxGeometry y="300" width="302" height="30" as="geometry"/>
                </mxCell>
                <mxCell id="669" style="shape=partialRectangle;connectable=0;fillColor=none;top=0;left=0;bottom=0;right=0;editable=1;overflow=hidden;" parent="668" vertex="1">
                    <mxGeometry width="33.75006103515625" height="30" as="geometry">
                        <mxRectangle width="33.75006103515625" height="30" as="alternateBounds"/>
                    </mxGeometry>
                </mxCell>
                <mxCell id="670" value="handler_user_name &lt;TEXT&gt; &lt;NOT NULL&gt;" style="shape=partialRectangle;connectable=0;fillColor=none;top=0;left=0;bottom=0;right=0;align=left;spacingLeft=6;overflow=hidden;fontColor=#000000;" parent="668" vertex="1">
                    <mxGeometry x="33.75006103515625" width="268.24993896484375" height="30" as="geometry">
                        <mxRectangle width="268.24993896484375" height="30" as="alternateBounds"/>
                    </mxGeometry>
                </mxCell>
                <mxCell id="671" style="shape=tableRow;horizontal=0;startSize=0;swimlaneHead=0;swimlaneBody=0;fillColor=none;collapsible=0;dropTarget=0;points=[[0,0.5],[1,0.5]];portConstraint=eastwest;top=0;left=0;right=0;bottom=0;fontColor=#000000;" parent="628" vertex="1">
                    <mxGeometry y="330" width="302" height="30" as="geometry"/>
                </mxCell>
                <mxCell id="672" style="shape=partialRectangle;connectable=0;fillColor=none;top=0;left=0;bottom=0;right=0;editable=1;overflow=hidden;" parent="671" vertex="1">
                    <mxGeometry width="33.75006103515625" height="30" as="geometry">
                        <mxRectangle width="33.75006103515625" height="30" as="alternateBounds"/>
                    </mxGeometry>
                </mxCell>
                <mxCell id="673" value="supervisor_user_name &lt;TEXT&gt; &lt;NOT NULL&gt;" style="shape=partialRectangle;connectable=0;fillColor=none;top=0;left=0;bottom=0;right=0;align=left;spacingLeft=6;overflow=hidden;fontColor=#000000;" parent="671" vertex="1">
                    <mxGeometry x="33.75006103515625" width="268.24993896484375" height="30" as="geometry">
                        <mxRectangle width="268.24993896484375" height="30" as="alternateBounds"/>
                    </mxGeometry>
                </mxCell>
                <mxCell id="674" style="shape=tableRow;horizontal=0;startSize=0;swimlaneHead=0;swimlaneBody=0;fillColor=none;collapsible=0;dropTarget=0;points=[[0,0.5],[1,0.5]];portConstraint=eastwest;top=0;left=0;right=0;bottom=0;fontColor=#000000;" parent="628" vertex="1">
                    <mxGeometry y="360" width="302" height="30" as="geometry"/>
                </mxCell>
                <mxCell id="675" style="shape=partialRectangle;connectable=0;fillColor=none;top=0;left=0;bottom=0;right=0;editable=1;overflow=hidden;" parent="674" vertex="1">
                    <mxGeometry width="33.75006103515625" height="30" as="geometry">
                        <mxRectangle width="33.75006103515625" height="30" as="alternateBounds"/>
                    </mxGeometry>
                </mxCell>
                <mxCell id="676" value="creator_user_name &lt;TEXT&gt; &lt;NOT NULL&gt;" style="shape=partialRectangle;connectable=0;fillColor=none;top=0;left=0;bottom=0;right=0;align=left;spacingLeft=6;overflow=hidden;fontColor=#000000;" parent="674" vertex="1">
                    <mxGeometry x="33.75006103515625" width="268.24993896484375" height="30" as="geometry">
                        <mxRectangle width="268.24993896484375" height="30" as="alternateBounds"/>
                    </mxGeometry>
                </mxCell>
                <mxCell id="677" value="Exam_Question" style="shape=table;startSize=30;container=1;collapsible=1;childLayout=tableLayout;fixedRows=1;rowLines=0;fontStyle=1;align=center;resizeLast=1;strokeColor=#000000;" parent="1" vertex="1">
                    <mxGeometry x="1961" y="-4924" width="260" height="92.1" as="geometry">
                        <mxRectangle x="194" y="-3673" width="62" height="30" as="alternateBounds"/>
                    </mxGeometry>
                </mxCell>
                <mxCell id="678" style="shape=tableRow;horizontal=0;startSize=0;swimlaneHead=0;swimlaneBody=0;fillColor=none;collapsible=0;dropTarget=0;points=[[0,0.5],[1,0.5]];portConstraint=eastwest;top=0;left=0;right=0;bottom=0;" parent="677" vertex="1">
                    <mxGeometry y="30" width="260" height="30" as="geometry"/>
                </mxCell>
                <mxCell id="679" value="PK,FK1" style="shape=partialRectangle;connectable=0;fillColor=none;top=0;left=0;bottom=0;right=0;fontStyle=1;overflow=hidden;fontColor=#FF00FF;" parent="678" vertex="1">
                    <mxGeometry width="53.1875" height="30" as="geometry">
                        <mxRectangle width="53.1875" height="30" as="alternateBounds"/>
                    </mxGeometry>
                </mxCell>
                <mxCell id="680" value="exam_id &lt;TEXT&gt; &lt;NOT NULL&gt;" style="shape=partialRectangle;connectable=0;fillColor=none;top=0;left=0;bottom=0;right=0;align=left;spacingLeft=6;fontStyle=1;overflow=hidden;fontColor=#FF00FF;" parent="678" vertex="1">
                    <mxGeometry x="53.1875" width="206.8125" height="30" as="geometry">
                        <mxRectangle width="206.8125" height="30" as="alternateBounds"/>
                    </mxGeometry>
                </mxCell>
                <mxCell id="681" value="" style="shape=tableRow;horizontal=0;startSize=0;swimlaneHead=0;swimlaneBody=0;fillColor=none;collapsible=0;dropTarget=0;points=[[0,0.5],[1,0.5]];portConstraint=eastwest;top=0;left=0;right=0;bottom=0;" parent="677" vertex="1">
                    <mxGeometry y="60" width="260" height="29" as="geometry"/>
                </mxCell>
                <mxCell id="682" value="PK,FK2" style="shape=partialRectangle;connectable=0;fillColor=none;top=0;left=0;bottom=0;right=0;fontStyle=1;overflow=hidden;fontColor=#FF00FF;" parent="681" vertex="1">
                    <mxGeometry width="53.1875" height="29" as="geometry">
                        <mxRectangle width="53.1875" height="29" as="alternateBounds"/>
                    </mxGeometry>
                </mxCell>
                <mxCell id="683" value="question_id &lt;TEXT&gt; &lt;NOT NULL&gt;" style="shape=partialRectangle;connectable=0;fillColor=none;top=0;left=0;bottom=0;right=0;align=left;spacingLeft=6;fontStyle=1;overflow=hidden;fontColor=#FF00FF;" parent="681" vertex="1">
                    <mxGeometry x="53.1875" width="206.8125" height="29" as="geometry">
                        <mxRectangle width="206.8125" height="29" as="alternateBounds"/>
                    </mxGeometry>
                </mxCell>
                <mxCell id="740" value="Answer" style="shape=table;startSize=30;container=1;collapsible=1;childLayout=tableLayout;fixedRows=1;rowLines=0;fontStyle=1;align=center;resizeLast=1;strokeColor=#000000;" parent="1" vertex="1">
                    <mxGeometry x="1446" y="-4214" width="261" height="210" as="geometry">
                        <mxRectangle x="194" y="-3673" width="62" height="30" as="alternateBounds"/>
                    </mxGeometry>
                </mxCell>
                <mxCell id="741" style="shape=tableRow;horizontal=0;startSize=0;swimlaneHead=0;swimlaneBody=0;fillColor=none;collapsible=0;dropTarget=0;points=[[0,0.5],[1,0.5]];portConstraint=eastwest;top=0;left=0;right=0;bottom=0;" parent="740" vertex="1">
                    <mxGeometry y="30" width="261" height="30" as="geometry"/>
                </mxCell>
                <mxCell id="742" value="PK,FK1" style="shape=partialRectangle;connectable=0;fillColor=none;top=0;left=0;bottom=0;right=0;fontStyle=1;overflow=hidden;fontColor=#FF00FF;" parent="741" vertex="1">
                    <mxGeometry width="53.1875" height="30" as="geometry">
                        <mxRectangle width="53.1875" height="30" as="alternateBounds"/>
                    </mxGeometry>
                </mxCell>
                <mxCell id="743" value="exam_id &lt;TEXT&gt; &lt;NOT NULL&gt;" style="shape=partialRectangle;connectable=0;fillColor=none;top=0;left=0;bottom=0;right=0;align=left;spacingLeft=6;fontStyle=1;overflow=hidden;fontColor=#FF00FF;" parent="741" vertex="1">
                    <mxGeometry x="53.1875" width="207.8125" height="30" as="geometry">
                        <mxRectangle width="207.8125" height="30" as="alternateBounds"/>
                    </mxGeometry>
                </mxCell>
                <mxCell id="744" value="" style="shape=tableRow;horizontal=0;startSize=0;swimlaneHead=0;swimlaneBody=0;fillColor=none;collapsible=0;dropTarget=0;points=[[0,0.5],[1,0.5]];portConstraint=eastwest;top=0;left=0;right=0;bottom=0;" parent="740" vertex="1">
                    <mxGeometry y="60" width="261" height="29" as="geometry"/>
                </mxCell>
                <mxCell id="745" value="PK,FK2" style="shape=partialRectangle;connectable=0;fillColor=none;top=0;left=0;bottom=0;right=0;fontStyle=1;overflow=hidden;fontColor=#FF00FF;" parent="744" vertex="1">
                    <mxGeometry width="53.1875" height="29" as="geometry">
                        <mxRectangle width="53.1875" height="29" as="alternateBounds"/>
                    </mxGeometry>
                </mxCell>
                <mxCell id="746" value="user_name &lt;TEXT&gt; &lt;NOT NULL&gt;" style="shape=partialRectangle;connectable=0;fillColor=none;top=0;left=0;bottom=0;right=0;align=left;spacingLeft=6;fontStyle=1;overflow=hidden;fontColor=#FF00FF;" parent="744" vertex="1">
                    <mxGeometry x="53.1875" width="207.8125" height="29" as="geometry">
                        <mxRectangle width="207.8125" height="29" as="alternateBounds"/>
                    </mxGeometry>
                </mxCell>
                <mxCell id="765" style="shape=tableRow;horizontal=0;startSize=0;swimlaneHead=0;swimlaneBody=0;fillColor=none;collapsible=0;dropTarget=0;points=[[0,0.5],[1,0.5]];portConstraint=eastwest;top=0;left=0;right=0;bottom=0;" parent="740" vertex="1">
                    <mxGeometry y="89" width="261" height="29" as="geometry"/>
                </mxCell>
                <mxCell id="766" value="PK,FK3" style="shape=partialRectangle;connectable=0;fillColor=none;top=0;left=0;bottom=0;right=0;fontStyle=1;overflow=hidden;fontColor=#FF00FF;" parent="765" vertex="1">
                    <mxGeometry width="53.1875" height="29" as="geometry">
                        <mxRectangle width="53.1875" height="29" as="alternateBounds"/>
                    </mxGeometry>
                </mxCell>
                <mxCell id="767" value="question_id &lt;TEXT&gt; &lt;NOT NULL&gt;" style="shape=partialRectangle;connectable=0;fillColor=none;top=0;left=0;bottom=0;right=0;align=left;spacingLeft=6;fontStyle=1;overflow=hidden;fontColor=#FF00FF;" parent="765" vertex="1">
                    <mxGeometry x="53.1875" width="207.8125" height="29" as="geometry">
                        <mxRectangle width="207.8125" height="29" as="alternateBounds"/>
                    </mxGeometry>
                </mxCell>
                <mxCell id="747" value="" style="shape=tableRow;horizontal=0;startSize=0;swimlaneHead=0;swimlaneBody=0;fillColor=none;collapsible=0;dropTarget=0;points=[[0,0.5],[1,0.5]];portConstraint=eastwest;top=0;left=0;right=0;bottom=0;" parent="740" vertex="1">
                    <mxGeometry y="118" width="261" height="29" as="geometry"/>
                </mxCell>
                <mxCell id="748" value="" style="shape=partialRectangle;connectable=0;fillColor=none;top=0;left=0;bottom=0;right=0;fontStyle=1;overflow=hidden;fontColor=#FF00FF;" parent="747" vertex="1">
                    <mxGeometry width="53.1875" height="29" as="geometry">
                        <mxRectangle width="53.1875" height="29" as="alternateBounds"/>
                    </mxGeometry>
                </mxCell>
                <mxCell id="749" value="option_id &lt;TEXT&gt;" style="shape=partialRectangle;connectable=0;fillColor=none;top=0;left=0;bottom=0;right=0;align=left;spacingLeft=6;fontStyle=0;overflow=hidden;fontColor=#000000;" parent="747" vertex="1">
                    <mxGeometry x="53.1875" width="207.8125" height="29" as="geometry">
                        <mxRectangle width="207.8125" height="29" as="alternateBounds"/>
                    </mxGeometry>
                </mxCell>
                <mxCell id="750" value="" style="shape=tableRow;horizontal=0;startSize=0;swimlaneHead=0;swimlaneBody=0;fillColor=none;collapsible=0;dropTarget=0;points=[[0,0.5],[1,0.5]];portConstraint=eastwest;top=0;left=0;right=0;bottom=0;" parent="740" vertex="1">
                    <mxGeometry y="147" width="261" height="29" as="geometry"/>
                </mxCell>
                <mxCell id="751" value="" style="shape=partialRectangle;connectable=0;fillColor=none;top=0;left=0;bottom=0;right=0;fontStyle=1;overflow=hidden;fontColor=#FF00FF;" parent="750" vertex="1">
                    <mxGeometry width="53.1875" height="29" as="geometry">
                        <mxRectangle width="53.1875" height="29" as="alternateBounds"/>
                    </mxGeometry>
                </mxCell>
                <mxCell id="752" value="answer_text &lt;TEXT&gt;" style="shape=partialRectangle;connectable=0;fillColor=none;top=0;left=0;bottom=0;right=0;align=left;spacingLeft=6;fontStyle=0;overflow=hidden;fontColor=#000000;" parent="750" vertex="1">
                    <mxGeometry x="53.1875" width="207.8125" height="29" as="geometry">
                        <mxRectangle width="207.8125" height="29" as="alternateBounds"/>
                    </mxGeometry>
                </mxCell>
                <mxCell id="753" value="" style="shape=tableRow;horizontal=0;startSize=0;swimlaneHead=0;swimlaneBody=0;fillColor=none;collapsible=0;dropTarget=0;points=[[0,0.5],[1,0.5]];portConstraint=eastwest;top=0;left=0;right=0;bottom=0;" parent="740" vertex="1">
                    <mxGeometry y="176" width="261" height="29" as="geometry"/>
                </mxCell>
                <mxCell id="754" value="" style="shape=partialRectangle;connectable=0;fillColor=none;top=0;left=0;bottom=0;right=0;fontStyle=1;overflow=hidden;fontColor=#FF00FF;" parent="753" vertex="1">
                    <mxGeometry width="53.1875" height="29" as="geometry">
                        <mxRectangle width="53.1875" height="29" as="alternateBounds"/>
                    </mxGeometry>
                </mxCell>
                <mxCell id="755" value="answer_image &lt;TEXT&gt;" style="shape=partialRectangle;connectable=0;fillColor=none;top=0;left=0;bottom=0;right=0;align=left;spacingLeft=6;fontStyle=0;overflow=hidden;fontColor=#000000;" parent="753" vertex="1">
                    <mxGeometry x="53.1875" width="207.8125" height="29" as="geometry">
                        <mxRectangle width="207.8125" height="29" as="alternateBounds"/>
                    </mxGeometry>
                </mxCell>
                <mxCell id="768" value="Feedback" style="shape=table;startSize=30;container=1;collapsible=1;childLayout=tableLayout;fixedRows=1;rowLines=0;fontStyle=1;align=center;resizeLast=1;strokeColor=#000000;" parent="1" vertex="1">
                    <mxGeometry x="2406" y="-4224" width="275" height="294" as="geometry">
                        <mxRectangle x="194" y="-3673" width="62" height="30" as="alternateBounds"/>
                    </mxGeometry>
                </mxCell>
                <mxCell id="769" style="shape=tableRow;horizontal=0;startSize=0;swimlaneHead=0;swimlaneBody=0;fillColor=none;collapsible=0;dropTarget=0;points=[[0,0.5],[1,0.5]];portConstraint=eastwest;top=0;left=0;right=0;bottom=0;" parent="768" vertex="1">
                    <mxGeometry y="30" width="275" height="30" as="geometry"/>
                </mxCell>
                <mxCell id="770" value="PK,FK1" style="shape=partialRectangle;connectable=0;fillColor=none;top=0;left=0;bottom=0;right=0;fontStyle=1;overflow=hidden;fontColor=#FF00FF;" parent="769" vertex="1">
                    <mxGeometry width="53.1875" height="30" as="geometry">
                        <mxRectangle width="53.1875" height="30" as="alternateBounds"/>
                    </mxGeometry>
                </mxCell>
                <mxCell id="771" value="exam_id &lt;TEXT&gt; &lt;NOT NULL&gt;" style="shape=partialRectangle;connectable=0;fillColor=none;top=0;left=0;bottom=0;right=0;align=left;spacingLeft=6;fontStyle=1;overflow=hidden;fontColor=#FF00FF;" parent="769" vertex="1">
                    <mxGeometry x="53.1875" width="221.8125" height="30" as="geometry">
                        <mxRectangle width="221.8125" height="30" as="alternateBounds"/>
                    </mxGeometry>
                </mxCell>
                <mxCell id="772" value="" style="shape=tableRow;horizontal=0;startSize=0;swimlaneHead=0;swimlaneBody=0;fillColor=none;collapsible=0;dropTarget=0;points=[[0,0.5],[1,0.5]];portConstraint=eastwest;top=0;left=0;right=0;bottom=0;" parent="768" vertex="1">
                    <mxGeometry y="60" width="275" height="29" as="geometry"/>
                </mxCell>
                <mxCell id="773" value="PK,FK2" style="shape=partialRectangle;connectable=0;fillColor=none;top=0;left=0;bottom=0;right=0;fontStyle=1;overflow=hidden;fontColor=#FF00FF;" parent="772" vertex="1">
                    <mxGeometry width="53.1875" height="29" as="geometry">
                        <mxRectangle width="53.1875" height="29" as="alternateBounds"/>
                    </mxGeometry>
                </mxCell>
                <mxCell id="774" value="user_name &lt;TEXT&gt; &lt;NOT NULL&gt;" style="shape=partialRectangle;connectable=0;fillColor=none;top=0;left=0;bottom=0;right=0;align=left;spacingLeft=6;fontStyle=1;overflow=hidden;fontColor=#FF00FF;" parent="772" vertex="1">
                    <mxGeometry x="53.1875" width="221.8125" height="29" as="geometry">
                        <mxRectangle width="221.8125" height="29" as="alternateBounds"/>
                    </mxGeometry>
                </mxCell>
                <mxCell id="775" style="shape=tableRow;horizontal=0;startSize=0;swimlaneHead=0;swimlaneBody=0;fillColor=none;collapsible=0;dropTarget=0;points=[[0,0.5],[1,0.5]];portConstraint=eastwest;top=0;left=0;right=0;bottom=0;" parent="768" vertex="1">
                    <mxGeometry y="89" width="275" height="29" as="geometry"/>
                </mxCell>
                <mxCell id="776" value="PK" style="shape=partialRectangle;connectable=0;fillColor=none;top=0;left=0;bottom=0;right=0;fontStyle=1;overflow=hidden;fontColor=#3333FF;" parent="775" vertex="1">
                    <mxGeometry width="53.1875" height="29" as="geometry">
                        <mxRectangle width="53.1875" height="29" as="alternateBounds"/>
                    </mxGeometry>
                </mxCell>
                <mxCell id="777" value="feedback_time &lt;TEXT&gt; &lt;NOT NULL&gt;" style="shape=partialRectangle;connectable=0;fillColor=none;top=0;left=0;bottom=0;right=0;align=left;spacingLeft=6;fontStyle=1;overflow=hidden;fontColor=#3333FF;" parent="775" vertex="1">
                    <mxGeometry x="53.1875" width="221.8125" height="29" as="geometry">
                        <mxRectangle width="221.8125" height="29" as="alternateBounds"/>
                    </mxGeometry>
                </mxCell>
                <mxCell id="778" value="" style="shape=tableRow;horizontal=0;startSize=0;swimlaneHead=0;swimlaneBody=0;fillColor=none;collapsible=0;dropTarget=0;points=[[0,0.5],[1,0.5]];portConstraint=eastwest;top=0;left=0;right=0;bottom=0;" parent="768" vertex="1">
                    <mxGeometry y="118" width="275" height="29" as="geometry"/>
                </mxCell>
                <mxCell id="779" value="" style="shape=partialRectangle;connectable=0;fillColor=none;top=0;left=0;bottom=0;right=0;fontStyle=1;overflow=hidden;fontColor=#FF00FF;" parent="778" vertex="1">
                    <mxGeometry width="53.1875" height="29" as="geometry">
                        <mxRectangle width="53.1875" height="29" as="alternateBounds"/>
                    </mxGeometry>
                </mxCell>
                <mxCell id="780" value="feedback_type &lt;TEXT&gt; &lt;NOT NULL&gt;" style="shape=partialRectangle;connectable=0;fillColor=none;top=0;left=0;bottom=0;right=0;align=left;spacingLeft=6;fontStyle=0;overflow=hidden;fontColor=#000000;" parent="778" vertex="1">
                    <mxGeometry x="53.1875" width="221.8125" height="29" as="geometry">
                        <mxRectangle width="221.8125" height="29" as="alternateBounds"/>
                    </mxGeometry>
                </mxCell>
                <mxCell id="781" value="" style="shape=tableRow;horizontal=0;startSize=0;swimlaneHead=0;swimlaneBody=0;fillColor=none;collapsible=0;dropTarget=0;points=[[0,0.5],[1,0.5]];portConstraint=eastwest;top=0;left=0;right=0;bottom=0;" parent="768" vertex="1">
                    <mxGeometry y="147" width="275" height="29" as="geometry"/>
                </mxCell>
                <mxCell id="782" value="" style="shape=partialRectangle;connectable=0;fillColor=none;top=0;left=0;bottom=0;right=0;fontStyle=1;overflow=hidden;fontColor=#FF00FF;" parent="781" vertex="1">
                    <mxGeometry width="53.1875" height="29" as="geometry">
                        <mxRectangle width="53.1875" height="29" as="alternateBounds"/>
                    </mxGeometry>
                </mxCell>
                <mxCell id="783" value="text &lt;TEXT&gt;" style="shape=partialRectangle;connectable=0;fillColor=none;top=0;left=0;bottom=0;right=0;align=left;spacingLeft=6;fontStyle=0;overflow=hidden;fontColor=#000000;" parent="781" vertex="1">
                    <mxGeometry x="53.1875" width="221.8125" height="29" as="geometry">
                        <mxRectangle width="221.8125" height="29" as="alternateBounds"/>
                    </mxGeometry>
                </mxCell>
                <mxCell id="784" value="" style="shape=tableRow;horizontal=0;startSize=0;swimlaneHead=0;swimlaneBody=0;fillColor=none;collapsible=0;dropTarget=0;points=[[0,0.5],[1,0.5]];portConstraint=eastwest;top=0;left=0;right=0;bottom=0;" parent="768" vertex="1">
                    <mxGeometry y="176" width="275" height="29" as="geometry"/>
                </mxCell>
                <mxCell id="785" value="" style="shape=partialRectangle;connectable=0;fillColor=none;top=0;left=0;bottom=0;right=0;fontStyle=1;overflow=hidden;fontColor=#FF00FF;" parent="784" vertex="1">
                    <mxGeometry width="53.1875" height="29" as="geometry">
                        <mxRectangle width="53.1875" height="29" as="alternateBounds"/>
                    </mxGeometry>
                </mxCell>
                <mxCell id="786" value="question_id &lt;TEXT&gt;" style="shape=partialRectangle;connectable=0;fillColor=none;top=0;left=0;bottom=0;right=0;align=left;spacingLeft=6;fontStyle=0;overflow=hidden;fontColor=#000000;" parent="784" vertex="1">
                    <mxGeometry x="53.1875" width="221.8125" height="29" as="geometry">
                        <mxRectangle width="221.8125" height="29" as="alternateBounds"/>
                    </mxGeometry>
                </mxCell>
                <mxCell id="787" style="shape=tableRow;horizontal=0;startSize=0;swimlaneHead=0;swimlaneBody=0;fillColor=none;collapsible=0;dropTarget=0;points=[[0,0.5],[1,0.5]];portConstraint=eastwest;top=0;left=0;right=0;bottom=0;" parent="768" vertex="1">
                    <mxGeometry y="205" width="275" height="29" as="geometry"/>
                </mxCell>
                <mxCell id="788" style="shape=partialRectangle;connectable=0;fillColor=none;top=0;left=0;bottom=0;right=0;fontStyle=1;overflow=hidden;fontColor=#FF00FF;" parent="787" vertex="1">
                    <mxGeometry width="53.1875" height="29" as="geometry">
                        <mxRectangle width="53.1875" height="29" as="alternateBounds"/>
                    </mxGeometry>
                </mxCell>
                <mxCell id="789" value="rating &lt;INTEGER&gt;" style="shape=partialRectangle;connectable=0;fillColor=none;top=0;left=0;bottom=0;right=0;align=left;spacingLeft=6;fontStyle=0;overflow=hidden;fontColor=#000000;" parent="787" vertex="1">
                    <mxGeometry x="53.1875" width="221.8125" height="29" as="geometry">
                        <mxRectangle width="221.8125" height="29" as="alternateBounds"/>
                    </mxGeometry>
                </mxCell>
                <mxCell id="790" style="shape=tableRow;horizontal=0;startSize=0;swimlaneHead=0;swimlaneBody=0;fillColor=none;collapsible=0;dropTarget=0;points=[[0,0.5],[1,0.5]];portConstraint=eastwest;top=0;left=0;right=0;bottom=0;" parent="768" vertex="1">
                    <mxGeometry y="234" width="275" height="29" as="geometry"/>
                </mxCell>
                <mxCell id="791" style="shape=partialRectangle;connectable=0;fillColor=none;top=0;left=0;bottom=0;right=0;fontStyle=1;overflow=hidden;fontColor=#FF00FF;" parent="790" vertex="1">
                    <mxGeometry width="53.1875" height="29" as="geometry">
                        <mxRectangle width="53.1875" height="29" as="alternateBounds"/>
                    </mxGeometry>
                </mxCell>
                <mxCell id="792" value="status &lt;TEXT&gt; &lt;NOT NULL&gt; " style="shape=partialRectangle;connectable=0;fillColor=none;top=0;left=0;bottom=0;right=0;align=left;spacingLeft=6;fontStyle=0;overflow=hidden;fontColor=#000000;" parent="790" vertex="1">
                    <mxGeometry x="53.1875" width="221.8125" height="29" as="geometry">
                        <mxRectangle width="221.8125" height="29" as="alternateBounds"/>
                    </mxGeometry>
                </mxCell>
                <mxCell id="793" style="shape=tableRow;horizontal=0;startSize=0;swimlaneHead=0;swimlaneBody=0;fillColor=none;collapsible=0;dropTarget=0;points=[[0,0.5],[1,0.5]];portConstraint=eastwest;top=0;left=0;right=0;bottom=0;" parent="768" vertex="1">
                    <mxGeometry y="263" width="275" height="29" as="geometry"/>
                </mxCell>
                <mxCell id="794" style="shape=partialRectangle;connectable=0;fillColor=none;top=0;left=0;bottom=0;right=0;fontStyle=1;overflow=hidden;fontColor=#FF00FF;" parent="793" vertex="1">
                    <mxGeometry width="53.1875" height="29" as="geometry">
                        <mxRectangle width="53.1875" height="29" as="alternateBounds"/>
                    </mxGeometry>
                </mxCell>
                <mxCell id="795" value="is_visible &lt;INTEGER&gt; &lt;NOT NULL&gt; " style="shape=partialRectangle;connectable=0;fillColor=none;top=0;left=0;bottom=0;right=0;align=left;spacingLeft=6;fontStyle=0;overflow=hidden;fontColor=#000000;" parent="793" vertex="1">
                    <mxGeometry x="53.1875" width="221.8125" height="29" as="geometry">
                        <mxRectangle width="221.8125" height="29" as="alternateBounds"/>
                    </mxGeometry>
                </mxCell>
                <mxCell id="797" value="" style="edgeStyle=entityRelationEdgeStyle;fontSize=13;html=1;endArrow=ERzeroToMany;endFill=1;strokeColor=#000000;strokeWidth=1;entryX=-0.009;entryY=0.056;entryDx=0;entryDy=0;entryPerimeter=0;exitX=1;exitY=0.5;exitDx=0;exitDy=0;jumpSize=8;endSize=14;startSize=14;startArrow=ERone;startFill=0;" edge="1" parent="1" source="456" target="548">
                    <mxGeometry width="100" height="100" relative="1" as="geometry">
                        <mxPoint x="2315" y="-3381" as="sourcePoint"/>
                        <mxPoint x="2415" y="-3481" as="targetPoint"/>
                    </mxGeometry>
                </mxCell>
                <mxCell id="798" value="" style="edgeStyle=entityRelationEdgeStyle;fontSize=13;html=1;endArrow=ERzeroToMany;endFill=1;strokeColor=#000000;strokeWidth=1;entryX=1;entryY=0.5;entryDx=0;entryDy=0;exitX=-0.011;exitY=0.146;exitDx=0;exitDy=0;jumpSize=8;endSize=14;startSize=14;startArrow=ERone;startFill=0;exitPerimeter=0;" edge="1" parent="1" source="456" target="504">
                    <mxGeometry width="100" height="100" relative="1" as="geometry">
                        <mxPoint x="1920.38" y="-3363.68" as="sourcePoint"/>
                        <mxPoint x="2232.617" y="-3407.9999999999995" as="targetPoint"/>
                    </mxGeometry>
                </mxCell>
                <mxCell id="799" value="" style="edgeStyle=entityRelationEdgeStyle;fontSize=13;html=1;endArrow=ERzeroToMany;endFill=1;strokeColor=#000000;strokeWidth=1;entryX=0;entryY=0.5;entryDx=0;entryDy=0;exitX=1;exitY=0.5;exitDx=0;exitDy=0;jumpSize=8;endSize=14;startSize=14;startArrow=ERone;startFill=0;" edge="1" parent="1" source="487" target="504">
                    <mxGeometry width="100" height="100" relative="1" as="geometry">
                        <mxPoint x="1073" y="-3759.68" as="sourcePoint"/>
                        <mxPoint x="1385.237" y="-3803.9999999999995" as="targetPoint"/>
                    </mxGeometry>
                </mxCell>
                <mxCell id="800" value="" style="edgeStyle=orthogonalEdgeStyle;fontSize=13;html=1;endArrow=ERzeroToMany;endFill=1;strokeColor=#000000;strokeWidth=1;exitX=0.5;exitY=0;exitDx=0;exitDy=0;jumpSize=8;endSize=14;startSize=14;startArrow=ERone;startFill=0;entryX=0.5;entryY=1;entryDx=0;entryDy=0;" edge="1" parent="1" source="471" target="528">
                    <mxGeometry width="100" height="100" relative="1" as="geometry">
                        <mxPoint x="1026.5" y="-3724" as="sourcePoint"/>
                        <mxPoint x="982" y="-3905.047677176339" as="targetPoint"/>
                    </mxGeometry>
                </mxCell>
                <mxCell id="801" value="" style="edgeStyle=entityRelationEdgeStyle;fontSize=13;html=1;endArrow=ERzeroToMany;endFill=1;strokeColor=#000000;strokeWidth=1;entryX=0;entryY=0.5;entryDx=0;entryDy=0;jumpSize=8;endSize=14;startSize=14;startArrow=ERone;startFill=0;" edge="1" parent="1" source="573" target="604">
                    <mxGeometry width="100" height="100" relative="1" as="geometry">
                        <mxPoint x="2037" y="-5133.79" as="sourcePoint"/>
                        <mxPoint x="2349.237" y="-5178.11" as="targetPoint"/>
                    </mxGeometry>
                </mxCell>
                <mxCell id="802" value="" style="edgeStyle=entityRelationEdgeStyle;fontSize=13;html=1;endArrow=ERzeroToMany;endFill=1;strokeColor=#000000;strokeWidth=1;entryX=1;entryY=0.5;entryDx=0;entryDy=0;jumpSize=8;endSize=14;startSize=14;startArrow=ERone;startFill=0;" edge="1" parent="1" source="573" target="678">
                    <mxGeometry width="100" height="100" relative="1" as="geometry">
                        <mxPoint x="1422" y="-5107.68" as="sourcePoint"/>
                        <mxPoint x="1734.237" y="-5152" as="targetPoint"/>
                    </mxGeometry>
                </mxCell>
                <mxCell id="803" value="" style="edgeStyle=orthogonalEdgeStyle;fontSize=13;html=1;endArrow=ERzeroToMany;endFill=1;strokeColor=#000000;strokeWidth=1;jumpSize=8;endSize=14;startSize=14;startArrow=ERone;startFill=0;exitX=0.5;exitY=0;exitDx=0;exitDy=0;entryX=0.5;entryY=1;entryDx=0;entryDy=0;" edge="1" parent="1" source="628" target="677">
                    <mxGeometry width="100" height="100" relative="1" as="geometry">
                        <mxPoint x="1895" y="-4515" as="sourcePoint"/>
                        <mxPoint x="1981" y="-4797" as="targetPoint"/>
                    </mxGeometry>
                </mxCell>
                <mxCell id="804" value="" style="edgeStyle=orthogonalEdgeStyle;fontSize=13;html=1;endArrow=ERzeroToMany;endFill=1;strokeColor=#000000;strokeWidth=1;entryX=0.5;entryY=1;entryDx=0;entryDy=0;jumpSize=8;endSize=14;startSize=14;startArrow=ERone;startFill=0;exitX=0.25;exitY=0;exitDx=0;exitDy=0;" edge="1" parent="1" source="440" target="690">
                    <mxGeometry width="100" height="100" relative="1" as="geometry">
                        <mxPoint x="2319" y="-3983" as="sourcePoint"/>
                        <mxPoint x="2086" y="-3987" as="targetPoint"/>
                    </mxGeometry>
                </mxCell>
                <mxCell id="805" value="" style="edgeStyle=orthogonalEdgeStyle;fontSize=13;html=1;endArrow=ERzeroToMany;endFill=1;strokeColor=#000000;strokeWidth=1;entryX=0.5;entryY=0;entryDx=0;entryDy=0;jumpSize=8;endSize=14;startSize=14;startArrow=ERone;startFill=0;exitX=0.5;exitY=1;exitDx=0;exitDy=0;" edge="1" parent="1" source="628" target="690">
                    <mxGeometry width="100" height="100" relative="1" as="geometry">
                        <mxPoint x="1623.0000000000002" y="-3958.95" as="sourcePoint"/>
                        <mxPoint x="1504" y="-4232" as="targetPoint"/>
                    </mxGeometry>
                </mxCell>
                <mxCell id="807" value="" style="edgeStyle=orthogonalEdgeStyle;fontSize=13;html=1;endArrow=ERzeroToMany;endFill=1;strokeColor=#000000;strokeWidth=1;entryX=0.5;entryY=0;entryDx=0;entryDy=0;jumpSize=8;endSize=14;startSize=14;startArrow=ERone;startFill=0;exitX=0.25;exitY=1;exitDx=0;exitDy=0;" edge="1" parent="1" source="628" target="740">
                    <mxGeometry width="100" height="100" relative="1" as="geometry">
                        <mxPoint x="1527" y="-4266" as="sourcePoint"/>
                        <mxPoint x="1671" y="-3904.5" as="targetPoint"/>
                    </mxGeometry>
                </mxCell>
                <mxCell id="808" value="" style="edgeStyle=orthogonalEdgeStyle;fontSize=13;html=1;endArrow=ERzeroToMany;endFill=1;strokeColor=#000000;strokeWidth=1;entryX=1;entryY=0.5;entryDx=0;entryDy=0;jumpSize=8;endSize=14;startSize=14;startArrow=ERone;startFill=0;exitX=0;exitY=0.5;exitDx=0;exitDy=0;" edge="1" parent="1" source="447" target="747">
                    <mxGeometry width="100" height="100" relative="1" as="geometry">
                        <mxPoint x="1384" y="-4122" as="sourcePoint"/>
                        <mxPoint x="1528" y="-3760.5" as="targetPoint"/>
                    </mxGeometry>
                </mxCell>
                <mxCell id="811" value="" style="edgeStyle=orthogonalEdgeStyle;fontSize=13;html=1;endArrow=ERzeroToMany;endFill=1;strokeColor=#000000;strokeWidth=1;entryX=0.5;entryY=1;entryDx=0;entryDy=0;jumpSize=8;endSize=14;startSize=14;startArrow=ERone;startFill=0;exitX=0.5;exitY=0;exitDx=0;exitDy=0;" edge="1" parent="1" source="440" target="768">
                    <mxGeometry width="100" height="100" relative="1" as="geometry">
                        <mxPoint x="2131" y="-3926.95" as="sourcePoint"/>
                        <mxPoint x="2012" y="-4200" as="targetPoint"/>
                    </mxGeometry>
                </mxCell>
                <mxCell id="812" value="" style="edgeStyle=orthogonalEdgeStyle;fontSize=13;html=1;endArrow=ERzeroToMany;endFill=1;strokeColor=#000000;strokeWidth=1;exitX=0.5;exitY=1;exitDx=0;exitDy=0;jumpSize=8;endSize=14;startSize=14;startArrow=ERone;startFill=0;entryX=0.5;entryY=0;entryDx=0;entryDy=0;" edge="1" parent="1" source="493" target="528">
                    <mxGeometry width="100" height="100" relative="1" as="geometry">
                        <mxPoint x="1117" y="-4119.1" as="sourcePoint"/>
                        <mxPoint x="1142.5" y="-4336" as="targetPoint"/>
                    </mxGeometry>
                </mxCell>
                <mxCell id="690" value="User_Exam" style="shape=table;startSize=30;container=1;collapsible=1;childLayout=tableLayout;fixedRows=1;rowLines=0;fontStyle=1;align=center;resizeLast=1;strokeColor=#000000;" parent="1" vertex="1">
                    <mxGeometry x="1926" y="-4224" width="334" height="268" as="geometry">
                        <mxRectangle x="194" y="-3673" width="62" height="30" as="alternateBounds"/>
                    </mxGeometry>
                </mxCell>
                <mxCell id="691" style="shape=tableRow;horizontal=0;startSize=0;swimlaneHead=0;swimlaneBody=0;fillColor=none;collapsible=0;dropTarget=0;points=[[0,0.5],[1,0.5]];portConstraint=eastwest;top=0;left=0;right=0;bottom=0;" parent="690" vertex="1">
                    <mxGeometry y="30" width="334" height="30" as="geometry"/>
                </mxCell>
                <mxCell id="692" value="PK,FK1" style="shape=partialRectangle;connectable=0;fillColor=none;top=0;left=0;bottom=0;right=0;fontStyle=1;overflow=hidden;fontColor=#FF00FF;" parent="691" vertex="1">
                    <mxGeometry width="53.1875" height="30" as="geometry">
                        <mxRectangle width="53.1875" height="30" as="alternateBounds"/>
                    </mxGeometry>
                </mxCell>
                <mxCell id="693" value="exam_id &lt;TEXT&gt; &lt;NOT NULL&gt;" style="shape=partialRectangle;connectable=0;fillColor=none;top=0;left=0;bottom=0;right=0;align=left;spacingLeft=6;fontStyle=1;overflow=hidden;fontColor=#FF00FF;" parent="691" vertex="1">
                    <mxGeometry x="53.1875" width="280.8125" height="30" as="geometry">
                        <mxRectangle width="280.8125" height="30" as="alternateBounds"/>
                    </mxGeometry>
                </mxCell>
                <mxCell id="694" value="" style="shape=tableRow;horizontal=0;startSize=0;swimlaneHead=0;swimlaneBody=0;fillColor=none;collapsible=0;dropTarget=0;points=[[0,0.5],[1,0.5]];portConstraint=eastwest;top=0;left=0;right=0;bottom=0;" parent="690" vertex="1">
                    <mxGeometry y="60" width="334" height="29" as="geometry"/>
                </mxCell>
                <mxCell id="695" value="PK,FK2" style="shape=partialRectangle;connectable=0;fillColor=none;top=0;left=0;bottom=0;right=0;fontStyle=1;overflow=hidden;fontColor=#FF00FF;" parent="694" vertex="1">
                    <mxGeometry width="53.1875" height="29" as="geometry">
                        <mxRectangle width="53.1875" height="29" as="alternateBounds"/>
                    </mxGeometry>
                </mxCell>
                <mxCell id="696" value="user_name &lt;TEXT&gt; &lt;NOT NULL&gt;" style="shape=partialRectangle;connectable=0;fillColor=none;top=0;left=0;bottom=0;right=0;align=left;spacingLeft=6;fontStyle=1;overflow=hidden;fontColor=#FF00FF;" parent="694" vertex="1">
                    <mxGeometry x="53.1875" width="280.8125" height="29" as="geometry">
                        <mxRectangle width="280.8125" height="29" as="alternateBounds"/>
                    </mxGeometry>
                </mxCell>
                <mxCell id="697" value="" style="shape=tableRow;horizontal=0;startSize=0;swimlaneHead=0;swimlaneBody=0;fillColor=none;collapsible=0;dropTarget=0;points=[[0,0.5],[1,0.5]];portConstraint=eastwest;top=0;left=0;right=0;bottom=0;" parent="690" vertex="1">
                    <mxGeometry y="89" width="334" height="29" as="geometry"/>
                </mxCell>
                <mxCell id="698" value="" style="shape=partialRectangle;connectable=0;fillColor=none;top=0;left=0;bottom=0;right=0;fontStyle=1;overflow=hidden;fontColor=#FF00FF;" parent="697" vertex="1">
                    <mxGeometry width="53.1875" height="29" as="geometry">
                        <mxRectangle width="53.1875" height="29" as="alternateBounds"/>
                    </mxGeometry>
                </mxCell>
                <mxCell id="699" value="score &lt;INTEGER&gt; &lt;NOT NULL&gt;" style="shape=partialRectangle;connectable=0;fillColor=none;top=0;left=0;bottom=0;right=0;align=left;spacingLeft=6;fontStyle=0;overflow=hidden;fontColor=#000000;" parent="697" vertex="1">
                    <mxGeometry x="53.1875" width="280.8125" height="29" as="geometry">
                        <mxRectangle width="280.8125" height="29" as="alternateBounds"/>
                    </mxGeometry>
                </mxCell>
                <mxCell id="700" value="" style="shape=tableRow;horizontal=0;startSize=0;swimlaneHead=0;swimlaneBody=0;fillColor=none;collapsible=0;dropTarget=0;points=[[0,0.5],[1,0.5]];portConstraint=eastwest;top=0;left=0;right=0;bottom=0;" parent="690" vertex="1">
                    <mxGeometry y="118" width="334" height="29" as="geometry"/>
                </mxCell>
                <mxCell id="701" value="" style="shape=partialRectangle;connectable=0;fillColor=none;top=0;left=0;bottom=0;right=0;fontStyle=1;overflow=hidden;fontColor=#FF00FF;" parent="700" vertex="1">
                    <mxGeometry width="53.1875" height="29" as="geometry">
                        <mxRectangle width="53.1875" height="29" as="alternateBounds"/>
                    </mxGeometry>
                </mxCell>
                <mxCell id="702" value="total_questions &lt;INTEGER&gt; &lt;NOT NULL&gt;" style="shape=partialRectangle;connectable=0;fillColor=none;top=0;left=0;bottom=0;right=0;align=left;spacingLeft=6;fontStyle=0;overflow=hidden;fontColor=#000000;" parent="700" vertex="1">
                    <mxGeometry x="53.1875" width="280.8125" height="29" as="geometry">
                        <mxRectangle width="280.8125" height="29" as="alternateBounds"/>
                    </mxGeometry>
                </mxCell>
                <mxCell id="703" value="" style="shape=tableRow;horizontal=0;startSize=0;swimlaneHead=0;swimlaneBody=0;fillColor=none;collapsible=0;dropTarget=0;points=[[0,0.5],[1,0.5]];portConstraint=eastwest;top=0;left=0;right=0;bottom=0;" parent="690" vertex="1">
                    <mxGeometry y="147" width="334" height="29" as="geometry"/>
                </mxCell>
                <mxCell id="704" value="" style="shape=partialRectangle;connectable=0;fillColor=none;top=0;left=0;bottom=0;right=0;fontStyle=1;overflow=hidden;fontColor=#FF00FF;" parent="703" vertex="1">
                    <mxGeometry width="53.1875" height="29" as="geometry">
                        <mxRectangle width="53.1875" height="29" as="alternateBounds"/>
                    </mxGeometry>
                </mxCell>
                <mxCell id="705" value="correct_answers &lt;INTEGER&gt; &lt;NOT NULL&gt;" style="shape=partialRectangle;connectable=0;fillColor=none;top=0;left=0;bottom=0;right=0;align=left;spacingLeft=6;fontStyle=0;overflow=hidden;fontColor=#000000;" parent="703" vertex="1">
                    <mxGeometry x="53.1875" width="280.8125" height="29" as="geometry">
                        <mxRectangle width="280.8125" height="29" as="alternateBounds"/>
                    </mxGeometry>
                </mxCell>
                <mxCell id="706" value="" style="shape=tableRow;horizontal=0;startSize=0;swimlaneHead=0;swimlaneBody=0;fillColor=none;collapsible=0;dropTarget=0;points=[[0,0.5],[1,0.5]];portConstraint=eastwest;top=0;left=0;right=0;bottom=0;" parent="690" vertex="1">
                    <mxGeometry y="176" width="334" height="29" as="geometry"/>
                </mxCell>
                <mxCell id="707" value="" style="shape=partialRectangle;connectable=0;fillColor=none;top=0;left=0;bottom=0;right=0;fontStyle=1;overflow=hidden;fontColor=#FF00FF;" parent="706" vertex="1">
                    <mxGeometry width="53.1875" height="29" as="geometry">
                        <mxRectangle width="53.1875" height="29" as="alternateBounds"/>
                    </mxGeometry>
                </mxCell>
                <mxCell id="708" value="wrong_answers &lt;INTEGER&gt; &lt;NOT NULL&gt;" style="shape=partialRectangle;connectable=0;fillColor=none;top=0;left=0;bottom=0;right=0;align=left;spacingLeft=6;fontStyle=0;overflow=hidden;fontColor=#000000;" parent="706" vertex="1">
                    <mxGeometry x="53.1875" width="280.8125" height="29" as="geometry">
                        <mxRectangle width="280.8125" height="29" as="alternateBounds"/>
                    </mxGeometry>
                </mxCell>
                <mxCell id="709" value="" style="shape=tableRow;horizontal=0;startSize=0;swimlaneHead=0;swimlaneBody=0;fillColor=none;collapsible=0;dropTarget=0;points=[[0,0.5],[1,0.5]];portConstraint=eastwest;top=0;left=0;right=0;bottom=0;" parent="690" vertex="1">
                    <mxGeometry y="205" width="334" height="29" as="geometry"/>
                </mxCell>
                <mxCell id="710" value="" style="shape=partialRectangle;connectable=0;fillColor=none;top=0;left=0;bottom=0;right=0;fontStyle=1;overflow=hidden;fontColor=#FF00FF;" parent="709" vertex="1">
                    <mxGeometry width="53.1875" height="29" as="geometry">
                        <mxRectangle width="53.1875" height="29" as="alternateBounds"/>
                    </mxGeometry>
                </mxCell>
                <mxCell id="711" value="unanswered_questions &lt;INTEGER&gt; &lt;NOT NULL&gt;" style="shape=partialRectangle;connectable=0;fillColor=none;top=0;left=0;bottom=0;right=0;align=left;spacingLeft=6;fontStyle=0;overflow=hidden;fontColor=#000000;" parent="709" vertex="1">
                    <mxGeometry x="53.1875" width="280.8125" height="29" as="geometry">
                        <mxRectangle width="280.8125" height="29" as="alternateBounds"/>
                    </mxGeometry>
                </mxCell>
                <mxCell id="737" style="shape=tableRow;horizontal=0;startSize=0;swimlaneHead=0;swimlaneBody=0;fillColor=none;collapsible=0;dropTarget=0;points=[[0,0.5],[1,0.5]];portConstraint=eastwest;top=0;left=0;right=0;bottom=0;" parent="690" vertex="1">
                    <mxGeometry y="234" width="334" height="29" as="geometry"/>
                </mxCell>
                <mxCell id="738" style="shape=partialRectangle;connectable=0;fillColor=none;top=0;left=0;bottom=0;right=0;fontStyle=1;overflow=hidden;fontColor=#FF00FF;" parent="737" vertex="1">
                    <mxGeometry width="53.1875" height="29" as="geometry">
                        <mxRectangle width="53.1875" height="29" as="alternateBounds"/>
                    </mxGeometry>
                </mxCell>
                <mxCell id="739" value="is_passed &lt;INTEGER&gt; &lt;NOT NULL&gt;" style="shape=partialRectangle;connectable=0;fillColor=none;top=0;left=0;bottom=0;right=0;align=left;spacingLeft=6;fontStyle=0;overflow=hidden;fontColor=#000000;" parent="737" vertex="1">
                    <mxGeometry x="53.1875" width="280.8125" height="29" as="geometry">
                        <mxRectangle width="280.8125" height="29" as="alternateBounds"/>
                    </mxGeometry>
                </mxCell>
                <mxCell id="814" value="" style="edgeStyle=orthogonalEdgeStyle;fontSize=13;html=1;endArrow=ERzeroToMany;endFill=1;strokeColor=#000000;strokeWidth=1;entryX=0.5;entryY=0;entryDx=0;entryDy=0;jumpSize=8;endSize=14;startSize=14;startArrow=ERone;startFill=0;exitX=1;exitY=0.5;exitDx=0;exitDy=0;" edge="1" parent="1" source="647" target="768">
                    <mxGeometry width="100" height="100" relative="1" as="geometry">
                        <mxPoint x="2366" y="-4427.5" as="sourcePoint"/>
                        <mxPoint x="2512" y="-4429" as="targetPoint"/>
                    </mxGeometry>
                </mxCell>
                <mxCell id="815" value="" style="edgeStyle=orthogonalEdgeStyle;fontSize=13;html=1;endArrow=ERzeroToMany;endFill=1;strokeColor=#000000;strokeWidth=1;entryX=0.25;entryY=0;entryDx=0;entryDy=0;jumpSize=8;endSize=14;startSize=14;startArrow=ERone;startFill=0;exitX=0;exitY=0.5;exitDx=0;exitDy=0;" edge="1" parent="1" source="564" target="740">
                    <mxGeometry width="100" height="100" relative="1" as="geometry">
                        <mxPoint x="1875" y="-4786" as="sourcePoint"/>
                        <mxPoint x="1458" y="-4685" as="targetPoint"/>
                    </mxGeometry>
                </mxCell>
            </root>
        </mxGraphModel>
    </diagram>
</mxfile>